<?xml version="1.0" encoding="UTF-8" standalone="no"?>
<!-- Created with Inkscape (http://www.inkscape.org/) -->

<svg
   version="1.1"
   id="svg1"
   width="368.50851"
   height="387.40637"
   viewBox="0 0 368.50851 387.40637"
   xmlns="http://www.w3.org/2000/svg"
   xmlns:svg="http://www.w3.org/2000/svg">
  <defs
     id="defs1" />
  <g
     id="g1"
     transform="translate(-147.09734,-45.804169)">
    <path
       id="path1"
       d="M 0,-49.6069 V 240.94788 H 276.38138 V -49.6069 Z"
       style="fill:#ffffff;fill-opacity:1;fill-rule:nonzero;stroke:none"
       transform="matrix(1.3333333,0,0,-1.3333333,147.09733,367.068)" />
    <path
       id="path2"
       d="m 7.08669,3.9851 v 225.89095 c 0,2.20095 1.78416,3.98511 3.98511,3.98511 h 254.23776 c 2.20094,0 3.9851,-1.78416 3.9851,-3.98511 V 3.9851 C 269.29466,1.78416 267.5105,0 265.30956,0 H 11.0718 C 8.87085,0 7.08669,1.78416 7.08669,3.9851 Z"
       style="fill:#ffffff;fill-opacity:0.5;fill-rule:nonzero;stroke:#808080;stroke-width:0.3985;stroke-linecap:butt;stroke-linejoin:miter;stroke-miterlimit:10;stroke-dasharray:2.98883, 3.9851, 0.3985, 3.9851;stroke-dashoffset:0;stroke-opacity:0.5"
       transform="matrix(1.3333333,0,0,-1.3333333,147.09733,367.068)" />
    <path
       id="path3"
       d="m 21.2601,18.1585 v 48.7234 c 0,2.20094 1.78417,3.9851 3.98511,3.9851 h 105.41702 c 2.20094,0 3.98511,-1.78416 3.98511,-3.9851 V 18.1585 c 0,-2.20095 -1.78417,-3.98511 -3.98511,-3.98511 H 25.24521 c -2.20094,0 -3.98511,1.78416 -3.98511,3.98511 z"
       style="fill:#f2f2f2;fill-opacity:0.5;fill-rule:nonzero;stroke:#808080;stroke-width:0.3985;stroke-linecap:butt;stroke-linejoin:miter;stroke-miterlimit:10;stroke-dasharray:2.98883, 3.9851, 0.3985, 3.9851;stroke-dashoffset:0;stroke-opacity:0.5"
       transform="matrix(1.3333333,0,0,-1.3333333,147.09733,367.068)" />
    <path
       id="path4"
       d="m 141.73404,18.1585 v 48.7234 c 0,2.20094 1.78416,3.9851 3.98511,3.9851 h 105.41702 c 2.20094,0 3.98511,-1.78416 3.98511,-3.9851 V 18.1585 c 0,-2.20095 -1.78417,-3.98511 -3.98511,-3.98511 H 145.71915 c -2.20095,0 -3.98511,1.78416 -3.98511,3.98511 z"
       style="fill:#f2f2f2;fill-opacity:0.5;fill-rule:nonzero;stroke:#808080;stroke-width:0.3985;stroke-linecap:butt;stroke-linejoin:miter;stroke-miterlimit:10;stroke-dasharray:2.98883, 3.9851, 0.3985, 3.9851;stroke-dashoffset:0;stroke-opacity:0.5"
       transform="matrix(1.3333333,0,0,-1.3333333,147.09733,367.068)" />
    <path
       id="path5"
       d="m 148.82074,152.80585 v 62.89679 c 0,2.20094 1.78416,3.9851 3.98511,3.9851 h 91.2436 c 2.20095,0 3.98511,-1.78416 3.98511,-3.9851 v -62.89679 c 0,-2.20095 -1.78416,-3.98511 -3.98511,-3.98511 h -91.2436 c -2.20095,0 -3.98511,1.78416 -3.98511,3.98511 z"
       style="fill:#fffccc;fill-opacity:1;fill-rule:nonzero;stroke:#000000;stroke-width:0.3985;stroke-linecap:butt;stroke-linejoin:miter;stroke-miterlimit:10;stroke-dasharray:none;stroke-opacity:1"
       transform="matrix(1.3333333,0,0,-1.3333333,147.09733,367.068)" />
    <path
       id="path6"
       d="M 3.2475234,-9.5972812 C 3.1186172,-9.7847812 3.0951797,-9.7965 2.7787734,-9.7965 H 0.58736719 v 0.421875 c 0.62109371,0 0.97265621,0 1.35937501,0.09375 v 7.7695313 c 0,0.421875 0,1.10156245 -1.35937501,1.10156245 V 3.75e-4 c 0.375,-0.0234375 1.13671871,-0.0234375 1.53515621,-0.0234375 0.3984375,0 1.1601563,0 1.5351563,0.0234375 v -0.41015625 c -1.359375,0 -1.359375,-0.67968745 -1.359375,-1.10156245 V -9.0465 c 0.1171875,0.1054688 0.1171875,0.140625 0.2460937,0.3164063 l 5.5898438,8.5195312 c 0.140625,0.19921875 0.1523437,0.2109375 0.2578125,0.2109375 0.1289062,0 0.1640625,-0.05859375 0.1757812,-0.08203125 V -8.2847812 c 0,-0.421875 0,-1.0898438 1.359375,-1.0898438 V -9.7965 c -0.375,0.023437 -1.1367187,0.023437 -1.5351562,0.023437 -0.3984375,0 -1.1601563,0 -1.5351563,-0.023437 v 0.421875 c 1.359375,0 1.359375,0.6679688 1.359375,1.0898438 v 6.2578125 z M 19.68307,-3.6675937 h -0.316406 c -0.339844,2.2382812 -0.691406,3.25781245 -3.117187,3.25781245 h -1.945313 c -0.632812,0 -0.65625,-0.10546875 -0.65625,-0.57421875 v -3.8789062 h 1.300781 c 1.371094,0 1.535157,0.4453125 1.535157,1.6757812 h 0.316406 v -3.7734375 h -0.316406 c 0,1.2421875 -0.164063,1.6875 -1.535157,1.6875 h -1.300781 v -3.5039062 c 0,-0.46875 0.02344,-0.5742188 0.65625,-0.5742188 h 1.910156 c 2.109375,0 2.554688,0.7148438 2.765625,2.7773438 h 0.316407 l -0.375,-3.1992188 h -7.804688 v 0.421875 h 0.292969 c 1.03125,0 1.066406,0.140625 1.066406,0.6679688 v 7.59375 c 0,0.5273437 -0.03516,0.67968745 -1.066406,0.67968745 H 11.116664 V 3.75e-4 h 7.992188 z m 10.541016,-1.1953125 c 0,-2.9648438 -2.179688,-5.2382808 -4.675781,-5.2382808 -2.554688,0 -4.6875,2.2968745 -4.6875,5.2382808 0,2.9179687 2.167968,5.1679687 4.675781,5.1679687 2.566406,0 4.6875,-2.2851562 4.6875,-5.1679687 z m -4.675781,4.8398437 c -1.464844,0 -3.351563,-1.3828125 -3.351563,-5.0507812 0,-3.515625 1.992188,-4.7109375 3.339844,-4.7109375 1.417969,0 3.363281,1.2304687 3.363281,4.7109375 0,3.7265625 -1.957031,5.0507812 -3.351562,5.0507812 z M 37.070766,-4.874625 c 1.417968,-0.328125 2.519531,-1.2304687 2.519531,-2.34375 0,-1.3828125 -1.617188,-2.578125 -3.691406,-2.578125 h -4.289063 v 0.421875 h 0.292969 c 1.03125,0 1.078125,0.140625 1.078125,0.6679688 v 7.6171875 c 0,0.5273437 -0.04687,0.67968745 -1.078125,0.67968745 H 31.609828 V 3.75e-4 c 0.339844,-0.0234375 1.511719,-0.0234375 1.921875,-0.0234375 0.421875,0 1.617188,0 1.945313,0.0234375 v -0.41015625 h -0.292969 c -1.03125,0 -1.078125,-0.15234375 -1.078125,-0.67968745 v -3.6679688 h 1.664062 c 0.5625,0 1.089844,0.1523438 1.476563,0.5507813 0.492187,0.5507812 0.492187,0.8554687 0.492187,1.8398437 0,1.1367188 0,1.51171875 0.632813,2.12109375 0.210937,0.22265625 0.820312,0.55078125 1.617187,0.55078125 1.125,0 1.3125,-1.25390625 1.3125,-1.546875 0,-0.09375 0,-0.2226562 -0.164062,-0.2226562 -0.140625,0 -0.140625,0.082031 -0.152344,0.234375 -0.07031,0.8554687 -0.492187,1.24218745 -0.949219,1.24218745 -0.65625,0 -0.808593,-0.66796875 -0.914062,-1.42968745 -0.02344,-0.1054688 -0.105469,-0.7148438 -0.152344,-1.078125 -0.09375,-0.7148438 -0.152344,-1.171875 -0.585937,-1.6171875 -0.152344,-0.1640625 -0.527344,-0.5507813 -1.3125,-0.7617188 z M 35.711391,-5.0504062 H 34.105922 V -8.812125 c 0,-0.328125 0,-0.4921875 0.304687,-0.5507812 0.128907,-0.011719 0.5625,-0.011719 0.84375,-0.011719 1.160157,0 3,0 3,2.15625 0,1.2539063 -0.667968,2.1679688 -2.542968,2.167969 z m 12.84082,-3.328125 c 0.128906,-0.3515625 0.375,-0.984375 1.488281,-0.9960938 V -9.7965 c -0.726562,0.023437 -0.761719,0.023437 -1.3125,0.023437 -0.386719,0 -1.113281,0 -1.464844,-0.023437 v 0.421875 c 0.726563,0.011719 0.9375,0.4101563 0.9375,0.6914063 0,0.09375 0,0.1171875 -0.08203,0.3164062 l -2.683594,7.078125 -2.824218,-7.4648437 c -0.07031,-0.1523438 -0.07031,-0.1875 -0.07031,-0.2109375 0,-0.4101563 0.714844,-0.4101563 1.078125,-0.4101563 V -9.7965 c -0.351562,0.023437 -1.441406,0.023437 -1.851562,0.023437 -0.398438,0 -1.382813,0 -1.722657,-0.023437 v 0.421875 c 0.890625,0 1.125,0 1.335938,0.5625 l 3.351562,8.8359375 c 0.07031,0.2109375 0.105469,0.28125 0.304688,0.28125 0.199219,0 0.210937,-0.046875 0.316406,-0.29296875 z m 4.40332,3.234375 c -0.246093,0.011719 -0.292968,0.023437 -0.292968,0.1523437 0,0.140625 0.07031,0.140625 0.328125,0.140625 h 0.65625 c 1.21875,0 1.769531,1.0078125 1.769531,2.3789063 0,1.8867187 -0.984375,2.39062495 -1.6875,2.39062495 -0.679688,0 -1.863281,-0.328125 -2.273438,-1.27734375 0.457032,0.070312 0.867188,-0.1875 0.867188,-0.703125 0,-0.421875 -0.292969,-0.703125 -0.703125,-0.703125 -0.339844,0 -0.714844,0.1992188 -0.714844,0.7382813 0,1.2773437 1.277344,2.3320312 2.871094,2.3320312 1.710937,0 2.964844,-1.3125 2.964844,-2.7539062 0,-1.3242188 -1.054688,-2.3554688 -2.4375,-2.6015625 1.253906,-0.3515625 2.050781,-1.40625 2.050781,-2.5195313 0,-1.1367187 -1.171875,-1.96875 -2.566406,-1.96875 -1.429688,0 -2.496094,0.8789063 -2.496094,1.921875 0,0.5742188 0.445312,0.6914063 0.667969,0.6914063 0.292968,0 0.644531,-0.2226563 0.644531,-0.6445313 0,-0.4570312 -0.351563,-0.6679687 -0.667969,-0.6679687 -0.08203,0 -0.105469,0 -0.152344,0.023437 0.539063,-0.984375 1.886719,-0.984375 1.96875,-0.984375 0.46875,0 1.394532,0.2226562 1.394532,1.6289062 0,0.2695313 -0.03516,1.078125 -0.457032,1.6875 -0.421875,0.6328125 -0.914062,0.6796875 -1.300781,0.6914063 z m 10.702149,2.7304687 h -0.316407 c -0.04687,0.2460938 -0.164062,1.03125 -0.304687,1.265625 -0.105469,0.1289063 -0.914063,0.1289063 -1.347656,0.1289063 h -2.660157 c 0.386719,-0.328125 1.265625,-1.2421875 1.640625,-1.59375 2.179688,-2.0039063 2.988282,-2.7539063 2.988282,-4.171875 0,-1.6523438 -1.3125,-2.7539063 -2.976563,-2.7539063 -1.664062,0 -2.636719,1.4179688 -2.636719,2.6484375 0,0.7382813 0.632813,0.7382813 0.679688,0.7382813 0.292969,0 0.667969,-0.2109375 0.667969,-0.6796875 0,-0.3984375 -0.269532,-0.6679688 -0.667969,-0.6679688 -0.140625,0 -0.164063,0 -0.210938,0.011719 0.28125,-0.9726563 1.054688,-1.6289063 1.980469,-1.6289063 1.21875,0 1.96875,1.0078125 1.96875,2.3320313 0,1.21875 -0.703125,2.2851562 -1.523437,3.1992187 l -2.894532,3.24609375 V 3.75e-4 h 5.238282 z m 0,0"
       style="fill:#000000;fill-opacity:1;fill-rule:nonzero;stroke:none"
       aria-label="NEORV32"
       transform="matrix(1.3333333,0,0,1.3333333,368.752,104.312)" />
    <path
       id="path7"
       d="m 155.90744,159.89255 v 20.37658 c 0,2.20095 1.78416,3.98511 3.98511,3.98511 h 77.07022 c 2.20093,0 3.98511,-1.78416 3.98511,-3.98511 v -20.37658 c 0,-2.20095 -1.78418,-3.98511 -3.98511,-3.98511 h -77.07022 c -2.20095,0 -3.98511,1.78416 -3.98511,3.98511 z"
       style="fill:#ccffcc;fill-opacity:1;fill-rule:nonzero;stroke:#000000;stroke-width:0.3985;stroke-linecap:butt;stroke-linejoin:miter;stroke-miterlimit:10;stroke-dasharray:none;stroke-opacity:1"
       transform="matrix(1.3333333,0,0,-1.3333333,147.09733,367.068)" />
    <path
       id="path8"
       d="m 5.6130781,-5.5077891 1.96875,-2.8828125 c 0.2460938,-0.3398437 0.6679688,-0.9726562 2.0273438,-0.984375 v -0.421875 c -0.6210938,0.023437 -0.7734375,0.023437 -1.5,0.023437 -0.3867188,0 -1.3125,0 -1.640625,-0.023437 v 0.421875 c 0.5859375,0.035156 0.7734375,0.3867188 0.7734375,0.6210938 0,0.1640625 -0.058594,0.2460937 -0.140625,0.375 l -1.7226563,2.53125 -1.9335937,-2.8710938 c -0.046875,-0.058594 -0.1054688,-0.1640625 -0.1054688,-0.234375 0,-0.1992187 0.3046875,-0.421875 0.8203125,-0.421875 v -0.421875 c -0.3398437,0.023437 -1.4765625,0.023437 -1.8984375,0.023437 -0.3984375,0 -1.40624997,0 -1.74609372,-0.023437 v 0.421875 c 1.07812502,0 1.21875002,0.070312 1.52343752,0.5273438 l 2.6835937,3.9726562 -2.4140625,3.515625 c -0.2460937,0.3515625 -0.703125,0.92578129 -1.99218747,0.94921879 V 2.34375e-5 C 0.93729688,-0.02341406 1.0896406,-0.02341406 1.8162031,-0.02341406 c 0.3867188,0 1.3242188,0 1.6523438,0.0234374975 V -0.41013281 c -0.5976563,-0.0351563 -0.7851563,-0.3984375 -0.7851563,-0.63281249 0,-0.1640625 0.070312,-0.2578125 0.1523438,-0.3867188 l 2.109375,-3.09375 2.3320312,3.4804688 c 0.082031,0.12890624 0.09375,0.14062499 0.09375,0.19921874 0,0.1640625 -0.2578125,0.41015625 -0.8203125,0.43359375 V 2.34375e-5 C 6.9021406,-0.02341406 8.0154219,-0.02341406 8.4372969,-0.02341406 c 0.3984375,0 1.4179687,0 1.7578121,0.0234374975 V -0.41013281 c -0.8437496,0 -1.1835934,0 -1.5117184,-0.50390625 z m 5.5371099,-4.2890625 v 0.421875 h 0.28125 c 1.03125,0 1.078125,0.140625 1.078125,0.6679688 v 7.6171875 c 0,0.52734374 -0.04687,0.67968749 -1.078125,0.67968749 h -0.28125 V 2.34375e-5 h 5.390625 c 1.851562,0 3.140625,-1.2421875375 3.140625,-2.6250000375 0,-1.1601562 -1.042969,-2.3085937 -2.753907,-2.4960937 1.359375,-0.2578125 2.355469,-1.171875 2.355469,-2.25 0,-1.2304688 -1.253906,-2.4257813 -3.128906,-2.4257813 z m 2.449218,4.5585938 v -3.5742188 c 0,-0.46875 0.02344,-0.5625 0.65625,-0.5625 h 1.804688 c 1.441406,0 1.957031,1.2304688 1.957031,2.0039063 0,0.9492187 -0.75,2.1328125 -2.34375,2.1328125 z m 0.65625,4.82812499 c -0.632812,0 -0.65625,-0.10546875 -0.65625,-0.57421875 V -4.9452891 H 16.283 c 1.371094,0 2.097656,1.2070313 2.097656,2.3085938 0,1.1601562 -0.878906,2.22656249 -2.285156,2.22656249 z M 28.658,-3.3046641 c 0,2.015625 -1.371094,3.18750004 -2.71875,3.18750004 -0.855469,0 -2.34375,-0.57421875 -2.34375,-3.08203124 v -5.5078125 c 0,-0.5273438 0.03516,-0.6679688 1.066406,-0.6679688 h 0.292969 v -0.421875 c -0.339844,0.023437 -1.523437,0.023437 -1.933594,0.023437 -0.433593,0 -1.605468,0 -1.957031,-0.023437 v 0.421875 h 0.292969 c 1.03125,0 1.066406,0.140625 1.066406,0.6679688 v 5.4257812 c 0,2.0742188 1.664063,3.58593754 3.492188,3.58593754 1.992187,0 3.128906,-1.95703124 3.128906,-3.38671874 v -5.4257813 c 0,-0.8671875 1.101562,-0.8671875 1.359375,-0.8671875 v -0.421875 c -0.375,0.023437 -1.148438,0.023437 -1.546875,0.023437 -0.421875,0 -1.195313,0 -1.570313,-0.023437 v 0.421875 c 1.371094,0 1.371094,0.6679688 1.371094,1.0546875 z m 5.337891,-2.671875 c -0.738282,-0.1875 -1.382813,-0.9140625 -1.382813,-1.828125 0,-1.0078125 0.808594,-1.9101562 1.921875,-1.9101562 2.355469,0 2.671875,2.3320312 2.753906,2.9414062 0.03516,0.1757813 0.03516,0.234375 0.175782,0.234375 0.152343,0 0.152343,-0.070312 0.152343,-0.328125 v -2.90625 c 0,-0.2578129 0,-0.3281249 -0.140625,-0.3281249 -0.04687,0 -0.105468,0 -0.199218,0.1874999 l -0.480469,0.8789063 c -0.679688,-0.890625 -1.628906,-1.0664062 -2.261719,-1.0664062 -1.59375,0 -2.753906,1.2773437 -2.753906,2.7421874 0,0.6914063 0.246094,1.3242188 0.773437,1.8984375 0.503907,0.5507813 1.007813,0.6796875 2.027344,0.9375 0.503906,0.1171875 1.289063,0.3164063 1.488281,0.4101563 0.679688,0.328125 1.125,1.1015625 1.125,1.9101562 0,1.0664063 -0.761718,2.08593754 -1.957031,2.08593754 -0.644531,0 -1.535156,-0.15234375 -2.238281,-0.7734375 -0.832031,-0.75000004 -0.890625,-1.78125004 -0.902344,-2.25000004 -0.01172,-0.1171875 -0.128906,-0.1171875 -0.152344,-0.1171875 -0.164062,0 -0.164062,0.070312 -0.164062,0.328125 v 2.90625004 c 0,0.2578125 0,0.328125 0.140625,0.328125 0.09375,0 0.105469,-0.0351563 0.199219,-0.19921875 0.05859,-0.1171875 0.363281,-0.65625 0.480468,-0.8671875 0.515625,0.57421875 1.417969,1.06640625 2.648438,1.06640625 1.605469,0 2.777344,-1.37109374 2.777344,-2.94140624 0,-0.8789063 -0.339844,-1.5234375 -0.726563,-1.9921875 -0.527344,-0.6445313 -1.171875,-0.8085938 -1.734375,-0.9492188 z m 0,0"
       style="fill:#000000;fill-opacity:1;fill-rule:nonzero;stroke:none"
       aria-label="XBUS"
       transform="matrix(1.3333333,0,0,1.3333333,385.78933,146.832)" />
    <path
       id="path9"
       d="m 35.43349,110.28563 v 20.3766 c 0,2.20094 1.78416,3.98511 3.98511,3.98511 h 77.07022 c 2.20094,0 3.9851,-1.78417 3.9851,-3.98511 v -20.3766 c 0,-2.20094 -1.78416,-3.98511 -3.9851,-3.98511 H 39.4186 c -2.20095,0 -3.98511,1.78417 -3.98511,3.98511 z"
       style="fill:#ffcccc;fill-opacity:1;fill-rule:nonzero;stroke:#000000;stroke-width:0.3985;stroke-linecap:butt;stroke-linejoin:miter;stroke-miterlimit:10;stroke-dasharray:none;stroke-opacity:1"
       transform="matrix(1.3333333,0,0,-1.3333333,147.09733,367.068)" />
    <path
       id="path10"
       d="m 3.1167734,-8.7075391 c 0,-0.5273437 0.035156,-0.6679687 1.1132813,-0.6679687 h 0.3164062 v -0.421875 c -0.3398437,0.023437 -1.5820312,0.023437 -2.0039062,0.023437 -0.4335938,0 -1.68750001,0 -2.02734376,-0.023437 v 0.421875 h 0.31640625 c 1.07812501,0 1.11328121,0.140625 1.11328121,0.6679687 v 7.6171875 c 0,0.52734379 -0.035156,0.67968754 -1.11328121,0.67968754 H 0.51521094 V -5.078125e-4 C 0.85505469,-0.02394531 2.0972422,-0.02394531 2.5191172,-0.02394531 c 0.4335937,0 1.6875,0 2.0273437,0.0234374975 V -0.41066406 H 4.2300547 c -1.078125,0 -1.1132813,-0.15234375 -1.1132813,-0.67968754 z m 5.1972657,-0.890625 c -0.1289063,-0.1875 -0.1523438,-0.1992187 -0.46875,-0.1992187 H 5.6538828 v 0.421875 c 0.6210938,0 0.9726563,0 1.359375,0.09375 v 7.7695312 c 0,0.421875 0,1.10156254 -1.359375,1.10156254 v 0.4101562475 c 0.375,-0.0234374975 1.1367188,-0.0234374975 1.5351563,-0.0234374975 0.3984375,0 1.1601562,0 1.5351562,0.0234374975 V -0.41066406 c -1.359375,0 -1.359375,-0.67968754 -1.359375,-1.10156254 v -7.5351562 c 0.1171875,0.1054687 0.1171875,0.140625 0.2460938,0.3164062 l 5.5898439,8.51953129 c 0.140625,0.19921875 0.152344,0.2109374975 0.257812,0.2109374975 0.128907,0 0.164063,-0.0585937475 0.175782,-0.0820312475 V -8.2856641 c 0,-0.421875 0,-1.0898437 1.359375,-1.0898437 v -0.421875 c -0.375,0.023437 -1.136719,0.023437 -1.535157,0.023437 -0.398437,0 -1.160156,0 -1.535156,-0.023437 v 0.421875 c 1.359375,0 1.359375,0.6679687 1.359375,1.0898437 v 6.2578125 z M 24.960523,-9.7270703 h -8.601562 l -0.257813,3.1992187 h 0.316407 c 0.199218,-2.2617187 0.328125,-2.7773437 2.589843,-2.7773437 0.257813,0 0.667969,0 0.773438,0.023437 0.292969,0.046875 0.304687,0.2109375 0.304687,0.5507812 v 7.6289063 c 0,0.48046874 0,0.69140624 -1.40625,0.69140624 H 18.163648 V -5.078125e-4 C 18.62068,-0.02394531 20.097242,-0.02394531 20.659742,-0.02394531 c 0.5625,0 2.050781,0 2.507813,0.0234374975 V -0.41066406 H 22.65193 c -1.40625,0 -1.40625,-0.2109375 -1.40625,-0.69140624 v -7.6289063 c 0,-0.3632812 0.03516,-0.4921875 0.257812,-0.5507812 0.117188,-0.023437 0.539063,-0.023437 0.808594,-0.023437 2.261719,0 2.390625,0.515625 2.589844,2.7773437 h 0.316406 z m 9.934571,6.0585937 h -0.316407 c -0.339843,2.2382813 -0.691406,3.25781254 -3.117187,3.25781254 h -1.945313 c -0.632812,0 -0.65625,-0.10546875 -0.65625,-0.57421875 V -4.8637891 h 1.300782 c 1.371093,0 1.535156,0.4453125 1.535156,1.6757813 h 0.316406 v -3.7734375 h -0.316406 c 0,1.2421875 -0.164063,1.6875 -1.535156,1.6875 h -1.300782 v -3.5039063 c 0,-0.46875 0.02344,-0.5742187 0.65625,-0.5742187 h 1.910157 c 2.109375,0 2.554687,0.7148437 2.765625,2.7773437 h 0.316406 l -0.375,-3.1992187 h -7.804688 v 0.421875 h 0.292969 c 1.03125,0 1.066406,0.140625 1.066406,0.6679687 v 7.59375 c 0,0.52734379 -0.03516,0.67968754 -1.066406,0.67968754 h -0.292969 v 0.4101562475 h 7.992188 z m 6.46289,-1.2070312 c 1.417969,-0.328125 2.519532,-1.2304688 2.519532,-2.34375 0,-1.3828125 -1.617188,-2.578125 -3.691407,-2.578125 h -4.289062 v 0.421875 h 0.292969 c 1.03125,0 1.078125,0.140625 1.078125,0.6679687 v 7.6171875 c 0,0.52734379 -0.04687,0.67968754 -1.078125,0.67968754 H 35.897047 V -5.078125e-4 C 36.236891,-0.02394531 37.408766,-0.02394531 37.818922,-0.02394531 c 0.421875,0 1.617187,0 1.945312,0.0234374975 V -0.41066406 h -0.292968 c -1.03125,0 -1.078125,-0.15234375 -1.078125,-0.67968754 v -3.6679687 h 1.664062 c 0.5625,0 1.089844,0.1523437 1.476563,0.5507812 0.492187,0.5507813 0.492187,0.8554688 0.492187,1.8398438 0,1.1367187 0,1.51171874 0.632813,2.12109374 0.210937,0.22265625 0.820312,0.55078125 1.617187,0.55078125 1.125,0 1.3125,-1.25390625 1.3125,-1.54687499 0,-0.09375 0,-0.2226563 -0.164062,-0.2226563 -0.140625,0 -0.140625,0.082031 -0.152344,0.234375 -0.07031,0.85546879 -0.492188,1.24218754 -0.949219,1.24218754 -0.65625,0 -0.808594,-0.66796875 -0.914062,-1.42968754 -0.02344,-0.1054687 -0.105469,-0.7148437 -0.152344,-1.078125 -0.09375,-0.7148437 -0.152344,-1.171875 -0.585938,-1.6171875 -0.152343,-0.1640625 -0.527343,-0.5507812 -1.3125,-0.7617187 z m -1.359375,-0.1757813 h -1.605468 v -3.7617187 c 0,-0.328125 0,-0.4921875 0.304687,-0.5507813 0.128906,-0.011719 0.5625,-0.011719 0.84375,-0.011719 1.160156,0 3,0 3,2.15625 0,1.2539062 -0.667969,2.1679687 -2.542969,2.167969 z m 14.604493,-4.7226562 c 0,-0.2578127 0,-0.3281247 -0.140625,-0.3281247 -0.09375,0 -0.105469,0.03516 -0.1875,0.1757809 l -0.703125,1.1367188 C 52.92732,-9.5981641 51.954664,-10.10207 50.911695,-10.10207 c -2.625,0 -4.886718,2.2734372 -4.886718,5.1914059 0,2.9765625 2.296875,5.21484379 4.886718,5.21484379 2.355469,0 3.691407,-2.05078129 3.691407,-3.63281249 0,-0.1523438 0,-0.2460938 -0.152344,-0.2460938 -0.152344,0 -0.164063,0.070312 -0.164063,0.1757813 -0.128906,2.2851562 -1.792968,3.28124999 -3.1875,3.28124999 -0.996093,0 -3.738281,-0.59765625 -3.738281,-4.79296879 0,-4.1367187 2.695313,-4.7695312 3.726563,-4.7695312 1.511718,0 2.824218,1.2773437 3.117187,3.421875 0.02344,0.1757812 0.02344,0.2226562 0.199219,0.2226562 0.199219,0 0.199219,-0.046875 0.199219,-0.328125 z m 10.930664,4.9101562 c 0,-2.9648437 -2.179688,-5.2382809 -4.675782,-5.2382809 -2.554687,0 -4.6875,2.2968747 -4.6875,5.2382809 0,2.9179688 2.167969,5.16796879 4.675782,5.16796879 2.566406,0 4.6875,-2.28515629 4.6875,-5.16796879 z m -4.675782,4.83984379 c -1.464843,0 -3.351562,-1.38281249 -3.351562,-5.05078129 0,-3.515625 1.992187,-4.7109375 3.339844,-4.7109375 1.417968,0 3.363281,1.2304688 3.363281,4.7109375 0,3.7265625 -1.957031,5.05078129 -3.351563,5.05078129 z m 8.709961,-9.57421879 c -0.128906,-0.1875 -0.152343,-0.1992187 -0.46875,-0.1992187 h -2.191406 v 0.421875 c 0.621094,0 0.972656,0 1.359375,0.09375 v 7.7695312 c 0,0.421875 0,1.10156254 -1.359375,1.10156254 v 0.4101562475 c 0.375,-0.0234374975 1.136719,-0.0234374975 1.535156,-0.0234374975 0.398438,0 1.160157,0 1.535157,0.0234374975 V -0.41066406 c -1.359375,0 -1.359375,-0.67968754 -1.359375,-1.10156254 v -7.5351562 c 0.117187,0.1054687 0.117187,0.140625 0.246093,0.3164062 l 5.589844,8.51953129 c 0.140625,0.19921875 0.152344,0.2109374975 0.257813,0.2109374975 0.128906,0 0.164062,-0.0585937475 0.175781,-0.0820312475 V -8.2856641 c 0,-0.421875 0,-1.0898437 1.359375,-1.0898437 v -0.421875 c -0.375,0.023437 -1.136719,0.023437 -1.535156,0.023437 -0.398438,0 -1.160157,0 -1.535157,-0.023437 v 0.421875 c 1.359375,0 1.359375,0.6679687 1.359375,1.0898437 v 6.2578125 z m 0,0"
       style="fill:#000000;fill-opacity:1;fill-rule:nonzero;stroke:none"
       aria-label="INTERCON"
       transform="matrix(1.3333333,0,0,1.3333333,199.80133,212.97333)" />
    <path
       id="path11"
       d="m 35.43349,32.33191 v 20.3766 c 0,2.20094 1.78416,3.98511 3.98511,3.98511 h 77.07022 c 2.20094,0 3.9851,-1.78417 3.9851,-3.98511 v -20.3766 c 0,-2.20094 -1.78416,-3.98511 -3.9851,-3.98511 H 39.4186 c -2.20095,0 -3.98511,1.78417 -3.98511,3.98511 z"
       style="fill:#ffe6cc;fill-opacity:1;fill-rule:nonzero;stroke:#000000;stroke-width:0.3985;stroke-linecap:butt;stroke-linejoin:miter;stroke-miterlimit:10;stroke-dasharray:none;stroke-opacity:1"
       transform="matrix(1.3333333,0,0,-1.3333333,147.09733,367.068)" />
    <path
       id="path12"
       d="m 6.0598906,-4.8753828 c 1.4179688,-0.328125 2.5195313,-1.2304688 2.5195313,-2.34375 0,-1.3828125 -1.6171875,-2.578125 -3.6914063,-2.578125 H 0.59895313 v 0.421875 h 0.29296875 c 1.03125002,0 1.07812502,0.140625 1.07812502,0.6679687 v 7.6171875 c 0,0.52734379 -0.046875,0.67968754 -1.07812502,0.67968754 H 0.59895313 V -3.828125e-4 C 0.93879688,-0.02382031 2.1106719,-0.02382031 2.5208281,-0.02382031 c 0.421875,0 1.6171875,0 1.9453125,0.0234374975 V -0.41053906 H 4.1731719 c -1.03125,0 -1.078125,-0.15234375 -1.078125,-0.67968754 v -3.6679687 h 1.6640625 c 0.5625,0 1.0898437,0.1523437 1.4765625,0.5507812 0.4921875,0.5507813 0.4921875,0.8554688 0.4921875,1.8398438 0,1.1367187 0,1.51171874 0.6328125,2.12109374 0.2109375,0.22265625 0.8203125,0.55078125 1.6171875,0.55078125 1.1249996,0 1.3124996,-1.25390625 1.3124996,-1.54687499 0,-0.09375 0,-0.2226563 -0.164062,-0.2226563 -0.1406251,0 -0.1406251,0.082031 -0.1523439,0.234375 -0.070312,0.85546879 -0.4921875,1.24218754 -0.9492187,1.24218754 -0.65625,0 -0.8085938,-0.66796875 -0.9140625,-1.42968754 -0.023437,-0.1054687 -0.1054688,-0.7148437 -0.1523438,-1.078125 -0.09375,-0.7148437 -0.1523437,-1.171875 -0.5859375,-1.6171875 -0.1523437,-0.1640625 -0.5273437,-0.5507812 -1.3125,-0.7617187 z M 4.7005156,-5.0511641 H 3.0950469 v -3.7617187 c 0,-0.328125 0,-0.4921875 0.3046875,-0.5507813 0.1289062,-0.011719 0.5625,-0.011719 0.84375,-0.011719 1.1601562,0 3,0 3,2.15625 0,1.2539062 -0.6679688,2.1679687 -2.5429688,2.167969 z m 15.3867184,0.1875 c 0,-2.9648437 -2.179687,-5.2382809 -4.675781,-5.2382809 -2.554687,0 -4.6875,2.2968747 -4.6875,5.2382809 0,2.9179688 2.167969,5.16796879 4.675781,5.16796879 2.566407,0 4.6875,-2.28515629 4.6875,-5.16796879 z m -4.675781,4.83984379 c -1.464844,0 -3.351562,-1.38281249 -3.351562,-5.05078129 0,-3.515625 1.992187,-4.7109375 3.339843,-4.7109375 1.417969,0 3.363282,1.2304688 3.363282,4.7109375 0,3.7265625 -1.957032,5.05078129 -3.351563,5.05078129 z M 24.180008,-9.5277266 C 24.074539,-9.7972578 24.06282,-9.7972578 23.734695,-9.7972578 h -2.226562 v 0.421875 h 0.28125 c 1.03125,0 1.078125,0.140625 1.078125,0.6679687 v 7.2304688 c 0,0.3867187 0,1.06640624 -1.359375,1.06640624 v 0.4101562475 c 0.375,-0.0234374975 1.136719,-0.0234374975 1.535156,-0.0234374975 0.398438,0 1.160156,0 1.535156,0.0234374975 V -0.41053906 c -1.359375,0 -1.359375,-0.67968754 -1.359375,-1.06640624 v -7.828125 h 0.01172 l 3.457031,9.03515624 c 0.05859,0.15234375 0.09375,0.2695312475 0.246094,0.2695312475 0.128906,0 0.152344,-0.0703124975 0.234375,-0.2812499975 l 3.492188,-9.09374999 h 0.01172 v 8.2851562 c 0,0.52734379 -0.04687,0.67968754 -1.078125,0.67968754 H 29.31282 V -3.828125e-4 C 29.640945,-0.02382031 30.789383,-0.02382031 31.199539,-0.02382031 c 0.421875,0 1.570313,0 1.898438,0.0234374975 V -0.41053906 h -0.292969 c -1.03125,0 -1.066406,-0.15234375 -1.066406,-0.67968754 v -7.6171875 c 0,-0.5273437 0.03516,-0.6679687 1.066406,-0.6679687 h 0.292969 v -0.421875 h -2.226563 c -0.316406,0 -0.328125,0.011719 -0.445312,0.28125 l -3.128907,8.1679687 z m 0,0"
       style="fill:#000000;fill-opacity:1;fill-rule:nonzero;stroke:none"
       aria-label="ROM"
       transform="matrix(1.3333333,0,0,1.3333333,228.53733,316.91067)" />
    <path
       id="path13"
       d="m 155.90744,32.33191 v 20.3766 c 0,2.20094 1.78416,3.98511 3.98511,3.98511 h 77.07022 c 2.20093,0 3.98511,-1.78417 3.98511,-3.98511 v -20.3766 c 0,-2.20094 -1.78418,-3.98511 -3.98511,-3.98511 h -77.07022 c -2.20095,0 -3.98511,1.78417 -3.98511,3.98511 z"
       style="fill:#ffe6cc;fill-opacity:1;fill-rule:nonzero;stroke:#000000;stroke-width:0.3985;stroke-linecap:butt;stroke-linejoin:miter;stroke-miterlimit:10;stroke-dasharray:none;stroke-opacity:1"
       transform="matrix(1.3333333,0,0,-1.3333333,147.09733,367.068)" />
    <path
       id="path14"
       d="m 6.0595,-4.8753828 c 1.4179688,-0.328125 2.5195313,-1.2304688 2.5195313,-2.34375 0,-1.3828125 -1.6171875,-2.578125 -3.6914063,-2.578125 H 0.5985625 v 0.421875 h 0.29296875 c 1.03125005,0 1.07812505,0.140625 1.07812505,0.6679687 v 7.6171875 c 0,0.52734379 -0.046875,0.67968754 -1.07812505,0.67968754 H 0.5985625 V -3.828125e-4 C 0.93840625,-0.02382031 2.1102813,-0.02382031 2.5204375,-0.02382031 c 0.421875,0 1.6171875,0 1.9453125,0.0234374975 V -0.41053906 H 4.1727813 c -1.03125,0 -1.078125,-0.15234375 -1.078125,-0.67968754 v -3.6679687 h 1.6640625 c 0.5625,0 1.0898437,0.1523437 1.4765625,0.5507812 0.4921875,0.5507813 0.4921875,0.8554688 0.4921875,1.8398438 0,1.1367187 0,1.51171874 0.6328125,2.12109374 0.2109375,0.22265625 0.8203125,0.55078125 1.6171875,0.55078125 1.1250002,0 1.3125002,-1.25390625 1.3125002,-1.54687499 0,-0.09375 0,-0.2226563 -0.164063,-0.2226563 -0.1406247,0 -0.1406247,0.082031 -0.1523435,0.234375 -0.070312,0.85546879 -0.4921875,1.24218754 -0.9492187,1.24218754 -0.65625,0 -0.8085938,-0.66796875 -0.9140625,-1.42968754 C 8.0868438,-1.5238203 8.0048125,-2.1331953 7.9579375,-2.4964766 7.8641875,-3.2113203 7.8055938,-3.6683516 7.372,-4.1136641 7.2196563,-4.2777266 6.8446563,-4.6644453 6.0595,-4.8753828 Z M 4.700125,-5.0511641 H 3.0946563 v -3.7617187 c 0,-0.328125 0,-0.4921875 0.3046875,-0.5507813 0.1289062,-0.011719 0.5625,-0.011719 0.84375,-0.011719 1.1601562,0 3,0 3,2.15625 0,1.2539062 -0.6679688,2.1679687 -2.5429688,2.167969 z m 11.191406,-4.9335937 c -0.05859,-0.1757812 -0.09375,-0.2578122 -0.292968,-0.2578122 -0.199219,0 -0.222657,0.04687 -0.292969,0.2695309 l -3,8.578125 c -0.199219,0.58593754 -0.609375,0.96093754 -1.523438,0.98437504 V -3.828125e-4 C 11.661063,-0.02382031 11.6845,-0.02382031 12.15325,-0.02382031 c 0.410156,0 1.089844,0 1.464844,0.0234374975 V -0.41053906 c -0.597656,-0.0234375 -0.960938,-0.31640625 -0.960938,-0.72656254 0,-0.082031 0,-0.1054687 0.07031,-0.2929687 l 0.667969,-1.9101563 h 3.609375 l 0.785156,2.25 c 0.08203,0.17578129 0.08203,0.19921879 0.08203,0.24609379 0,0.43359375 -0.738281,0.43359375 -1.089844,0.43359375 V -3.828125e-4 C 17.110281,-0.02382031 18.235281,-0.02382031 18.645438,-0.02382031 c 0.398437,0 1.429687,0 1.757812,0.0234374975 V -0.41053906 c -0.925781,0 -1.183594,0 -1.382812,-0.59765624 z m -0.691406,1.453125 1.664063,4.7695312 h -3.328125 z m 8.973633,-0.9960938 C 24.068289,-9.7972578 24.05657,-9.7972578 23.728445,-9.7972578 h -2.226562 v 0.421875 h 0.28125 c 1.03125,0 1.078125,0.140625 1.078125,0.6679687 v 7.2304688 c 0,0.3867187 0,1.06640624 -1.359375,1.06640624 v 0.4101562475 c 0.375,-0.0234374975 1.136719,-0.0234374975 1.535156,-0.0234374975 0.398438,0 1.160156,0 1.535156,0.0234374975 V -0.41053906 c -1.359375,0 -1.359375,-0.67968754 -1.359375,-1.06640624 v -7.828125 h 0.01172 l 3.457031,9.03515624 c 0.05859,0.15234375 0.09375,0.2695312475 0.246094,0.2695312475 0.128906,0 0.152344,-0.0703124975 0.234375,-0.2812499975 l 3.492188,-9.09374999 h 0.01172 v 8.2851562 c 0,0.52734379 -0.04687,0.67968754 -1.078125,0.67968754 H 29.30657 V -3.828125e-4 C 29.634695,-0.02382031 30.783133,-0.02382031 31.193289,-0.02382031 c 0.421875,0 1.570313,0 1.898438,0.0234374975 V -0.41053906 h -0.292969 c -1.03125,0 -1.066406,-0.15234375 -1.066406,-0.67968754 v -7.6171875 c 0,-0.5273437 0.03516,-0.6679687 1.066406,-0.6679687 h 0.292969 v -0.421875 h -2.226563 c -0.316406,0 -0.328125,0.011719 -0.445312,0.28125 l -3.128907,8.1679687 z m 0,0"
       style="fill:#000000;fill-opacity:1;fill-rule:nonzero;stroke:none"
       aria-label="RAM"
       transform="matrix(1.3333333,0,0,1.3333333,389.17067,316.91067)" />
    <path
       id="path15"
       d="m 77.95372,70.867 v 29.23027"
       style="fill:none;stroke:#000000;stroke-width:1.59404;stroke-linecap:butt;stroke-linejoin:miter;stroke-miterlimit:10;stroke-dasharray:none;stroke-opacity:1"
       transform="matrix(1.3333333,0,0,-1.3333333,147.09733,367.068)" />
    <path
       id="path16"
       d="M 7.89215,0 2.57367,2.02063 4.3573,0 2.57367,-2.02063 Z"
       style="fill:#000000;fill-opacity:1;fill-rule:nonzero;stroke:#000000;stroke-width:1.59404;stroke-linecap:butt;stroke-linejoin:miter;stroke-miterlimit:10;stroke-dasharray:none;stroke-opacity:1"
       transform="matrix(0,-1.3333333,-1.3333333,0,251.03563,238.88337)" />
    <path
       id="path17"
       d="m 126.67717,120.47392 h 72.45898"
       style="fill:none;stroke:#000000;stroke-width:1.59404;stroke-linecap:butt;stroke-linejoin:miter;stroke-miterlimit:10;stroke-dasharray:none;stroke-opacity:1"
       transform="matrix(1.3333333,0,0,-1.3333333,147.09733,367.068)" />
    <path
       id="path18"
       d="M 7.89215,0 2.57367,2.02063 4.3573,0 2.57367,-2.02063 Z"
       style="fill:#000000;fill-opacity:1;fill-rule:nonzero;stroke:#000000;stroke-width:1.59404;stroke-linecap:butt;stroke-linejoin:miter;stroke-miterlimit:10;stroke-dasharray:none;stroke-opacity:1"
       transform="matrix(-1.3333333,0,0,1.3333333,321.27863,206.43611)" />
    <path
       id="path19"
       d="M 198.42766,120.47392 V 77.07025"
       style="fill:none;stroke:#000000;stroke-width:1.59404;stroke-linecap:butt;stroke-linejoin:miter;stroke-miterlimit:10;stroke-dasharray:none;stroke-opacity:1"
       transform="matrix(1.3333333,0,0,-1.3333333,147.09733,367.068)" />
    <path
       id="path20"
       d="M 7.89215,0 2.57367,2.02063 4.3573,0 2.57367,-2.02063 Z"
       style="fill:#000000;fill-opacity:1;fill-rule:nonzero;stroke:#000000;stroke-width:1.59404;stroke-linecap:butt;stroke-linejoin:miter;stroke-miterlimit:10;stroke-dasharray:none;stroke-opacity:1"
       transform="matrix(0,1.3333333,1.3333333,0,411.66755,259.02924)" />
    <path
       id="path21"
       d="m 77.95372,140.85059 v 29.23027"
       style="fill:none;stroke:#000000;stroke-width:1.59404;stroke-linecap:butt;stroke-linejoin:miter;stroke-miterlimit:10;stroke-dasharray:none;stroke-opacity:1"
       transform="matrix(1.3333333,0,0,-1.3333333,147.09733,367.068)" />
    <path
       id="path22"
       d="M 7.89215,0 2.57367,2.02063 4.3573,0 2.57367,-2.02063 Z"
       style="fill:#000000;fill-opacity:1;fill-rule:nonzero;stroke:#000000;stroke-width:1.59404;stroke-linecap:butt;stroke-linejoin:miter;stroke-miterlimit:10;stroke-dasharray:none;stroke-opacity:1"
       transform="matrix(0,1.3333333,1.3333333,0,251.03563,173.98881)" />
    <path
       id="path23"
       d="M 77.24521,170.08086 H 149.7042"
       style="fill:none;stroke:#000000;stroke-width:1.59404;stroke-linecap:butt;stroke-linejoin:miter;stroke-miterlimit:10;stroke-dasharray:none;stroke-opacity:1"
       transform="matrix(1.3333333,0,0,-1.3333333,147.09733,367.068)" />
    <path
       id="path24"
       d="M 7.89215,0 2.57367,2.02063 4.3573,0 2.57367,-2.02063 Z"
       style="fill:#000000;fill-opacity:1;fill-rule:nonzero;stroke:#000000;stroke-width:1.59404;stroke-linecap:butt;stroke-linejoin:miter;stroke-miterlimit:10;stroke-dasharray:none;stroke-opacity:1"
       transform="matrix(1.3333333,0,0,-1.3333333,341.42452,140.29352)" />
    <path
       id="path25"
       d="M 77.95372,-28.3468 V 22.14355"
       style="fill:none;stroke:#000000;stroke-width:1.59404;stroke-linecap:butt;stroke-linejoin:miter;stroke-miterlimit:10;stroke-dasharray:none;stroke-opacity:1"
       transform="matrix(1.3333333,0,0,-1.3333333,147.09733,367.068)" />
    <path
       id="path26"
       d="M 7.89215,0 2.57367,2.02063 4.3573,0 2.57367,-2.02063 Z"
       style="fill:#000000;fill-opacity:1;fill-rule:nonzero;stroke:#000000;stroke-width:1.59404;stroke-linecap:butt;stroke-linejoin:miter;stroke-miterlimit:10;stroke-dasharray:none;stroke-opacity:1"
       transform="matrix(0,-1.3333333,-1.3333333,0,251.03563,342.82167)" />
    <path
       id="path27"
       d="M 198.42766,-7.97015 V 28.3468"
       style="fill:none;stroke:#000000;stroke-width:1.59404;stroke-linecap:butt;stroke-linejoin:miter;stroke-miterlimit:10;stroke-dasharray:2.98883, 1.99255, 1.59404, 1.99255;stroke-dashoffset:0;stroke-opacity:1"
       transform="matrix(1.3333333,0,0,-1.3333333,147.09733,367.068)" />
    <path
       id="path28"
       d="M 7.89215,0 2.57367,2.02063 4.3573,0 2.57367,-2.02063 Z"
       style="fill:#000000;fill-opacity:1;fill-rule:nonzero;stroke:#000000;stroke-width:1.59404;stroke-linecap:butt;stroke-linejoin:miter;stroke-miterlimit:10;stroke-dasharray:none;stroke-opacity:1"
       transform="matrix(0,1.3333333,1.3333333,0,411.66755,372.41645)" />
    <path
       id="path29"
       d="m 85.24939,-17.11998 c -1.34291,2.326 -4.60985,4.21191 -7.29567,4.21191 -2.68582,0 -5.95276,-1.88591 -7.29567,-4.21191 -1.76975,1.48676 -4.96648,2.05244 -7.13892,1.26318 -2.17245,-0.78918 -4.26278,-3.27552 -4.66557,-5.55151 -1.52076,0.08015 -3.42673,-0.89044 -4.25656,-2.16737 -0.82976,-1.27698 -0.94327,-3.41402 -0.25227,-4.77112 -0.691,-1.3571 -0.57823,-3.493 0.25152,-4.76998 0.82984,-1.27691 2.73655,-2.24867 4.25731,-2.16852 0.40279,-2.27598 2.49123,-4.76147 4.66368,-5.55064 2.17244,-0.78926 5.37106,-0.22444 7.14081,1.26232 1.34291,-2.32601 4.60985,-4.21192 7.29567,-4.21192 2.68582,0 5.95276,1.88591 7.29567,4.21192 1.76973,-1.48676 4.96648,-2.05245 7.13891,-1.26318 2.17245,0.78918 4.2628,3.27552 4.66558,5.5515 1.52075,-0.08015 3.42672,0.89045 4.25654,2.16736 0.82976,1.277 0.94328,3.41404 0.25229,4.77114 0.69099,1.3571 0.57822,3.49298 -0.25154,4.76997 -0.82983,1.27692 -2.73654,2.24867 -4.25729,2.16852 -0.40278,2.27599 -2.49124,4.76147 -4.6637,5.55064 -2.17244,0.78927 -5.37106,0.22445 -7.14079,-1.26231 z"
       style="fill:#ffffff;fill-opacity:1;fill-rule:nonzero;stroke:#000000;stroke-width:0.3985;stroke-linecap:butt;stroke-linejoin:miter;stroke-miterlimit:10;stroke-dasharray:none;stroke-opacity:1"
       transform="matrix(1.3333333,0,0,-1.3333333,147.09733,367.068)" />
    <path
       id="path30"
       d="m 0.40923438,-4.7585156 v 0.2460937 h 0.1640625 c 0.53906252,0 0.55078122,0.070312 0.55078122,0.3164063 v 3.63281248 c 0,0.234375 -0.011719,0.31640625 -0.55078122,0.31640625 H 0.40923438 V -7.03125e-4 H 3.1514219 c 1.2773437,0 2.34375,-1.031249975 2.34375,-2.343749975 0,-1.3242188 -1.0429688,-2.4140625 -2.34375,-2.4140625 z m 1.68750002,4.51171873 c -0.328125,0 -0.3398438,-0.0585938 -0.3398438,-0.28125 V -4.2428906 c 0,-0.2109375 0.011719,-0.2695313 0.3398438,-0.2695313 h 0.8554687 c 0.5976563,0 1.1132813,0.2460938 1.4296875,0.65625 0.2929688,0.375 0.3984375,0.9023438 0.3984375,1.5117188 0,0.8085937 -0.1992187,1.2304687 -0.4453125,1.52343748 -0.3164062,0.3515625 -0.8203125,0.57421875 -1.3710937,0.57421875 z M 8.9111875,-4.8171094 c -0.035156,-0.1054687 -0.058594,-0.1523437 -0.1992187,-0.1523437 -0.1289063,0 -0.1523438,0.046875 -0.1875,0.1523437 l -1.6171875,4.08984378 c -0.070312,0.1640625 -0.1875,0.48046875 -0.8085938,0.48046875 v 0.246093745 c 0.234375,-0.023437495 0.4804688,-0.023437495 0.7148438,-0.023437495 0.28125,0 0.796875,0.023437495 0.8320312,0.023437495 V -0.24679687 c -0.3046875,0 -0.4921875,-0.140625 -0.4921875,-0.33984375 0,-0.0585938 0,-0.0703125 0.035156,-0.140625 L 7.5166563,-1.5827344 H 9.497125 l 0.4101563,1.01953128 c 0.011719,0.0351563 0.035156,0.0820312 0.035156,0.1171875 0,0.19921875 -0.3867187,0.19921875 -0.5742187,0.19921875 V -7.03125e-4 C 9.7197813,-0.01242187 10.165094,-0.02414062 10.411188,-0.02414062 c 0.328125,0 0.855468,0.01171875 0.925781,0.023437495 V -0.24679687 h -0.140625 c -0.46875,0 -0.515625,-0.0703125 -0.585938,-0.26953125 z M 8.51275,-4.1022656 9.403375,-1.8288281 H 7.6104063 Z m 7.699219,-0.609375 h -4.710938 l -0.140625,1.6054687 h 0.234375 c 0.09375,-1.2070312 0.292969,-1.359375 1.371094,-1.359375 0.140625,0 0.339844,0 0.410156,0.011719 0.152344,0.023437 0.152344,0.1054687 0.152344,0.2578125 v 3.62109373 c 0,0.234375 0,0.328125 -0.726562,0.328125 h -0.292969 v 0.246093745 c 0.339844,-0.023437495 0.996094,-0.023437495 1.359375,-0.023437495 0.363281,0 0.996094,0 1.347656,0.023437495 V -0.24679687 h -0.292969 c -0.726562,0 -0.726562,-0.09375 -0.726562,-0.328125 V -4.1960156 c 0,-0.1523438 0,-0.234375 0.152344,-0.2578125 0.07031,-0.011719 0.269531,-0.011719 0.410156,-0.011719 0.386719,0 0.691406,0 0.9375,0.140625 0.304687,0.1875 0.363281,0.6328125 0.363281,0.6679688 l 0.07031,0.5507812 h 0.234375 z m 2.982422,-0.1054688 c -0.03516,-0.1054687 -0.05859,-0.1523437 -0.199219,-0.1523437 -0.128906,0 -0.152344,0.046875 -0.1875,0.1523437 l -1.617188,4.08984378 c -0.07031,0.1640625 -0.1875,0.48046875 -0.808593,0.48046875 v 0.246093745 c 0.234375,-0.023437495 0.480468,-0.023437495 0.714843,-0.023437495 0.28125,0 0.796875,0.023437495 0.832032,0.023437495 V -0.24679687 c -0.304688,0 -0.492188,-0.140625 -0.492188,-0.33984375 0,-0.0585938 0,-0.0703125 0.03516,-0.140625 l 0.328125,-0.85546878 h 1.980469 l 0.410156,1.01953128 c 0.01172,0.0351563 0.03516,0.0820312 0.03516,0.1171875 0,0.19921875 -0.386719,0.19921875 -0.574219,0.19921875 v 0.246093745 c 0.351562,-0.011718745 0.796875,-0.023437495 1.042969,-0.023437495 0.328125,0 0.855468,0.01171875 0.925781,0.023437495 V -0.24679687 h -0.140625 c -0.46875,0 -0.515625,-0.0703125 -0.585938,-0.26953125 z m -0.398438,0.7148438 0.890625,2.2734375 h -1.792969 z m 7.605469,-0.09375 c 0,-0.234375 0,-0.3164063 0.574219,-0.3164063 h 0.175781 v -0.2460937 c -0.04687,0 -0.808594,0.023437 -1.078125,0.023437 -0.28125,0 -1.042969,-0.023437 -1.089844,-0.023437 v 0.2460937 h 0.1875 c 0.574219,0 0.574219,0.082031 0.574219,0.3164063 v 3.62109373 c 0,0.234375 0,0.328125 -0.574219,0.328125 h -0.1875 v 0.246093745 c 0.05859,0 0.808594,-0.023437495 1.089844,-0.023437495 0.269531,0 1.042969,0.023437495 1.078125,0.023437495 V -0.24679687 h -0.175781 c -0.574219,0 -0.574219,-0.09375 -0.574219,-0.328125 z m 2.926758,-0.4570313 c -0.07031,-0.1054687 -0.08203,-0.1054687 -0.222657,-0.1054687 h -1.207031 v 0.2460937 h 0.210938 c 0.304687,0 0.480468,0.035156 0.515625,0.046875 v 3.71484378 c 0,0.1875 0,0.50390625 -0.726563,0.50390625 v 0.246093745 c 0.292969,-0.023437495 0.574219,-0.023437495 0.855469,-0.023437495 0.28125,0 0.5625,0 0.855469,0.023437495 V -0.24679687 c -0.726563,0 -0.726563,-0.31640625 -0.726563,-0.50390625 V -4.2780469 l 3.09375,4.17187503 c 0.07031,0.09375 0.08203,0.105468745 0.164063,0.105468745 0.128906,0 0.128906,-0.058593745 0.128906,-0.199218745 V -4.0085156 c 0,-0.1875 0,-0.5039063 0.726562,-0.5039063 v -0.2460937 c -0.292968,0.011719 -0.574218,0.023437 -0.855468,0.023437 -0.28125,0 -0.5625,-0.011719 -0.855469,-0.023437 v 0.2460937 c 0.726562,0 0.726562,0.3164063 0.726562,0.5039063 v 2.953125 z m 0,0"
       style="fill:#000000;fill-opacity:1;fill-rule:nonzero;stroke:none"
       aria-label="DATAIN"
       transform="matrix(1.3333333,0,0,1.3333333,228.77467,408.04)" />
    <path
       id="path31"
       d="m 205.93195,-16.79895 c -1.38131,2.39249 -4.74166,4.33235 -7.50429,4.33235 -2.76262,0 -6.12297,-1.93986 -7.50429,-4.33235 -1.82051,1.52945 -5.1089,2.11131 -7.34369,1.29942 -2.23478,-0.81183 -4.38403,-3.36909 -4.79837,-5.71039 -1.56422,0.08246 -3.52469,-0.91588 -4.37822,-2.22929 -0.85347,-1.31346 -0.97029,-3.51173 -0.25954,-4.90759 -0.71075,-1.39586 -0.59475,-3.5928 0.25872,-4.90627 0.85353,-1.31343 2.81482,-2.31308 4.37904,-2.23062 0.41434,-2.34129 2.5627,-4.89807 4.79749,-5.70988 2.2348,-0.81189 5.52406,-0.23053 7.34457,1.29892 1.38132,-2.39249 4.74167,-4.33235 7.50429,-4.33235 2.76263,0 6.12298,1.93986 7.50429,4.33235 1.82051,-1.52945 5.1089,-2.11132 7.3437,-1.29943 2.23477,0.81183 4.38402,3.3691 4.79837,5.71039 1.56421,-0.08246 3.52468,0.91588 4.3782,2.22929 0.85348,1.31347 0.97031,3.51174 0.25956,4.9076 0.71075,1.39586 0.59474,3.5928 -0.25873,4.90626 -0.85353,1.31344 -2.81482,2.31308 -4.37903,2.23062 -0.41435,2.3413 -2.56272,4.89806 -4.79748,5.70989 -2.23481,0.81189 -5.52408,0.23053 -7.34459,-1.29892 z"
       style="fill:#ffffff;fill-opacity:1;fill-rule:nonzero;stroke:#000000;stroke-width:0.3985;stroke-linecap:butt;stroke-linejoin:miter;stroke-miterlimit:10;stroke-dasharray:none;stroke-opacity:1"
       transform="matrix(1.3333333,0,0,-1.3333333,147.09733,367.068)" />
    <path
       id="path32"
       d="m 0.409,-4.7585156 v 0.2460937 h 0.1640625 c 0.5390625,0 0.5507812,0.070312 0.5507812,0.3164063 v 3.63281248 c 0,0.234375 -0.011719,0.31640625 -0.5507812,0.31640625 H 0.409 v 0.246093745 h 2.7421875 c 1.2773437,0 2.34375,-1.031249975 2.34375,-2.343749975 0,-1.3242188 -1.0429688,-2.4140625 -2.34375,-2.4140625 z m 1.6875,4.51171873 c -0.328125,0 -0.3398438,-0.0585938 -0.3398438,-0.28125 V -4.2428906 c 0,-0.2109375 0.011719,-0.2695313 0.3398438,-0.2695313 h 0.8554687 c 0.5976563,0 1.1132813,0.2460938 1.4296875,0.65625 0.2929688,0.375 0.3984375,0.9023438 0.3984375,1.5117188 0,0.8085937 -0.1992187,1.2304687 -0.4453125,1.52343748 -0.3164062,0.3515625 -0.8203125,0.57421875 -1.3710937,0.57421875 z M 8.9109531,-4.8171094 c -0.035156,-0.1054687 -0.058594,-0.1523437 -0.1992187,-0.1523437 -0.1289063,0 -0.1523438,0.046875 -0.1875,0.1523437 l -1.6171875,4.08984378 c -0.070312,0.1640625 -0.1875,0.48046875 -0.8085938,0.48046875 v 0.246093745 c 0.234375,-0.023437495 0.4804688,-0.023437495 0.7148438,-0.023437495 0.28125,0 0.796875,0.023437495 0.8320312,0.023437495 V -0.24679687 c -0.3046875,0 -0.4921875,-0.140625 -0.4921875,-0.33984375 0,-0.0585938 0,-0.0703125 0.035156,-0.140625 l 0.328125,-0.85546878 h 1.9804687 l 0.4101563,1.01953128 c 0.011719,0.0351563 0.035156,0.0820312 0.035156,0.1171875 0,0.19921875 -0.3867187,0.19921875 -0.5742187,0.19921875 v 0.246093745 c 0.351563,-0.011718745 0.7968751,-0.023437495 1.0429691,-0.023437495 0.328125,0 0.855469,0.01171875 0.925781,0.023437495 V -0.24679687 h -0.140625 c -0.46875,0 -0.515625,-0.0703125 -0.585937,-0.26953125 z m -0.3984375,0.7148438 0.890625,2.2734375 H 7.6101719 Z m 7.6992184,-0.609375 h -4.710937 l -0.140625,1.6054687 h 0.234375 c 0.09375,-1.2070312 0.292969,-1.359375 1.371094,-1.359375 0.140625,0 0.339843,0 0.410156,0.011719 0.152344,0.023437 0.152344,0.1054687 0.152344,0.2578125 v 3.62109373 c 0,0.234375 0,0.328125 -0.726563,0.328125 h -0.292969 v 0.246093745 c 0.339844,-0.023437495 0.996094,-0.023437495 1.359375,-0.023437495 0.363282,0 0.996094,0 1.347657,0.023437495 V -0.24679687 h -0.292969 c -0.726563,0 -0.726563,-0.09375 -0.726563,-0.328125 V -4.1960156 c 0,-0.1523438 0,-0.234375 0.152344,-0.2578125 0.07031,-0.011719 0.269531,-0.011719 0.410156,-0.011719 0.386719,0 0.691407,0 0.9375,0.140625 0.304688,0.1875 0.363282,0.6328125 0.363282,0.6679688 l 0.07031,0.5507812 h 0.234375 z m 2.985352,-0.1054688 c -0.03516,-0.1054687 -0.05859,-0.1523437 -0.199219,-0.1523437 -0.128906,0 -0.152344,0.046875 -0.1875,0.1523437 l -1.617187,4.08984378 c -0.07031,0.1640625 -0.1875,0.48046875 -0.808594,0.48046875 v 0.246093745 c 0.234375,-0.023437495 0.480469,-0.023437495 0.714844,-0.023437495 0.28125,0 0.796875,0.023437495 0.832031,0.023437495 V -0.24679687 c -0.304688,0 -0.492188,-0.140625 -0.492188,-0.33984375 0,-0.0585938 0,-0.0703125 0.03516,-0.140625 l 0.328125,-0.85546878 h 1.980468 l 0.410157,1.01953128 c 0.01172,0.0351563 0.03516,0.0820312 0.03516,0.1171875 0,0.19921875 -0.386719,0.19921875 -0.574219,0.19921875 v 0.246093745 c 0.351563,-0.011718745 0.796875,-0.023437495 1.042969,-0.023437495 0.328125,0 0.855469,0.01171875 0.925781,0.023437495 V -0.24679687 h -0.140625 c -0.46875,0 -0.515625,-0.0703125 -0.585937,-0.26953125 z m -0.398438,0.7148438 0.890625,2.2734375 h -1.792968 z m 11.458008,1.7460937 c 0,-1.3945312 -1.148437,-2.5429687 -2.566406,-2.5429687 -1.429688,0 -2.566406,1.1484375 -2.566406,2.5429687 0,1.37109378 1.136718,2.49609378 2.566406,2.49609378 1.429687,0 2.566406,-1.125 2.566406,-2.49609378 z m -2.566406,2.26171878 c -0.820313,0 -1.828125,-0.65625 -1.828125,-2.37890628 0,-1.6171875 1.03125,-2.203125 1.828125,-2.203125 0.785156,0 1.816406,0.5859375 1.816406,2.203125 0,1.72265628 -1.007812,2.37890628 -1.816406,2.37890628 z m 7.816406,-3.91406248 c 0,-0.1875 0,-0.5039063 0.726563,-0.5039063 v -0.2460937 c -0.28125,0.011719 -0.574219,0.023437 -0.84375,0.023437 -0.28125,0 -0.574219,-0.011719 -0.84375,-0.023437 v 0.2460937 c 0.714843,0 0.714843,0.3164063 0.714843,0.5039063 v 2.390625 c 0,0.96093748 -0.738281,1.49999998 -1.464843,1.49999998 -0.410157,0 -1.277344,-0.2109375 -1.277344,-1.46484378 v -2.6132812 c 0,-0.234375 0.01172,-0.3164063 0.550781,-0.3164063 h 0.164063 v -0.2460937 c -0.339844,0.011719 -0.785157,0.023437 -1.042969,0.023437 -0.257813,0 -0.703125,-0.011719 -1.054688,-0.023437 v 0.2460937 h 0.175782 c 0.527343,0 0.550781,0.070312 0.550781,0.3164063 v 2.5898437 c 0,1.00781253 0.890625,1.74609378 1.921875,1.74609378 0.949219,0 1.722656,-0.76171875 1.722656,-1.73437498 z m 6.313477,-0.703125 h -4.710938 l -0.140625,1.6054687 h 0.234375 c 0.09375,-1.2070312 0.292969,-1.359375 1.371094,-1.359375 0.140625,0 0.339844,0 0.410156,0.011719 0.152344,0.023437 0.152344,0.1054687 0.152344,0.2578125 v 3.62109373 c 0,0.234375 0,0.328125 -0.726562,0.328125 h -0.292969 v 0.246093745 c 0.339844,-0.023437495 0.996094,-0.023437495 1.359375,-0.023437495 0.363281,0 0.996094,0 1.347656,0.023437495 V -0.24679687 H 40.53107 c -0.726562,0 -0.726562,-0.09375 -0.726562,-0.328125 V -4.1960156 c 0,-0.1523438 0,-0.234375 0.152344,-0.2578125 0.07031,-0.011719 0.269531,-0.011719 0.410156,-0.011719 0.386719,0 0.691406,0 0.9375,0.140625 0.304687,0.1875 0.363281,0.6328125 0.363281,0.6679688 l 0.07031,0.5507812 h 0.234375 z m 0,0"
       style="fill:#000000;fill-opacity:1;fill-rule:nonzero;stroke:none"
       aria-label="DATAOUT"
       transform="matrix(1.3333333,0,0,1.3333333,383.45467,408.04)" />
    <path
       id="path33"
       d="m 7.1026016,-4.0560156 c 0.082031,-0.2460938 0.2578125,-0.4570313 0.7148437,-0.4570313 v -0.2460937 c -0.070312,0 -0.4453125,0.023437 -0.6445312,0.023437 -0.2929688,0 -0.5976563,-0.011719 -0.890625,-0.023437 v 0.2460937 c 0.3984375,0.011719 0.5859375,0.1757813 0.5859375,0.3515625 0,0.035156 0,0.046875 -0.035156,0.140625 l -1.1484375,3.22265628 -1.21875,-3.42187498 c -0.035156,-0.082031 -0.035156,-0.09375 -0.035156,-0.09375 0,-0.1992188 0.3984375,-0.1992188 0.5859375,-0.1992188 v -0.2460937 c -0.3515625,0.011719 -0.796875,0.023437 -1.0429688,0.023437 -0.28125,0 -0.5625,-0.011719 -0.84375,-0.023437 v 0.2460937 c 0.3632813,0 0.4804688,0.011719 0.5625,0.1054688 0.046875,0.058594 0.140625,0.3164062 0.1875,0.46875 l -1.1132812,3.14062498 -1.21875,-3.39843748 c -0.035156,-0.082031 -0.035156,-0.1054688 -0.035156,-0.1171875 0,-0.1992188 0.3984375,-0.1992188 0.5859375,-0.1992188 v -0.2460937 c -0.3515625,0.011719 -0.796875,0.023437 -1.0429687,0.023437 -0.29296879,0 -0.56250004,-0.011719 -0.85546879,-0.023437 v 0.2460937 c 0.43359375,0 0.5625,0 0.65625,0.2578125 l 1.51171879,4.23046878 c 0.035156,0.1171875 0.070312,0.1640625 0.1875,0.1640625 0.1171875,0 0.140625,-0.0703125 0.1757812,-0.1640625 l 1.2773438,-3.56249998 1.2773437,3.56249998 c 0.035156,0.09375 0.058594,0.1640625 0.1757813,0.1640625 0.1289062,0 0.1523437,-0.046875 0.1992187,-0.1640625 z m 2.399414,-0.2460938 c 0,-0.1992187 -0.1757812,-0.3984375 -0.4101562,-0.3984375 -0.2109375,0 -0.3984375,0.1640625 -0.3984375,0.3984375 0,0.2460938 0.1992187,0.3984375 0.3984375,0.3984375 0.2226562,0 0.4101562,-0.1640625 0.4101562,-0.3984375 z m -1.0664062,1.3007813 v 0.2578125 c 0.4453125,0 0.5039062,0.035156 0.5039062,0.375 v 1.81640623 c 0,0.3046875 -0.070312,0.3046875 -0.5273437,0.3046875 v 0.24609375 c 0.023437,0 0.5039062,-0.0234375 0.7851562,-0.0234375 0.2460938,0 0.4921875,0 0.7382813,0.0234375 v -0.24609375 c -0.3984375,0 -0.46875,0 -0.46875,-0.29296875 V -3.0716406 Z m 4.4941406,0.070312 c 0,-0.1171875 0,-0.1757813 -0.105469,-0.1757813 -0.03516,0 -0.04687,0 -0.140625,0.082031 -0.01172,0 -0.08203,0.070312 -0.117187,0.1054687 -0.210938,-0.1523437 -0.480469,-0.1875 -0.738281,-0.1875 -0.996094,0 -1.230469,0.515625 -1.230469,0.8671875 0,0.2226563 0.09375,0.4101563 0.257812,0.5390625 0.269532,0.234375 0.539063,0.28125 0.960938,0.3515625 0.351562,0.070312 0.914062,0.1640625 0.914062,0.63281253 0,0.26953125 -0.1875,0.5859375 -0.855468,0.5859375 -0.667969,0 -0.914063,-0.43359375 -1.03125,-0.91406253 -0.02344,-0.082031 -0.03516,-0.1171875 -0.128907,-0.1171875 -0.117187,0 -0.117187,0.046875 -0.117187,0.18750003 v 0.85546875 c 0,0.12890625 0,0.1875 0.09375,0.1875 0.05859,0 0.199219,-0.15234375 0.339844,-0.3046875 0.304687,0.29296875 0.679687,0.3046875 0.84375,0.3046875 0.914062,0 1.242187,-0.4921875 1.242187,-0.984375 0,-0.26953128 -0.117187,-0.46874998 -0.292969,-0.64453128 -0.269531,-0.2460937 -0.585937,-0.2929687 -0.832031,-0.3398437 -0.5625,-0.09375 -1.007812,-0.1757813 -1.007812,-0.5507813 0,-0.2226562 0.1875,-0.4921875 0.84375,-0.4921875 0.808593,0 0.84375,0.5625 0.855468,0.7617188 0.01172,0.082031 0.09375,0.082031 0.117188,0.082031 0.128906,0 0.128906,-0.046875 0.128906,-0.1875 z m 4.092773,0.8203125 c 0,-0.609375 -0.292968,-0.9609375 -1.042968,-0.9609375 -0.621094,0 -0.960938,0.3632812 -1.113282,0.6328125 h -0.01172 v -2.4023438 l -1.042969,0.082031 v 0.2460937 c 0.46875,0 0.527344,0.046875 0.527344,0.3867188 v 3.57421873 c 0,0.3046875 -0.07031,0.3046875 -0.527344,0.3046875 v 0.24609375 c 0.01172,0 0.503906,-0.0234375 0.796875,-0.0234375 0.257812,0 0.738281,0.01171875 0.796875,0.0234375 v -0.24609375 c -0.445313,0 -0.515625,0 -0.515625,-0.3046875 V -1.8060156 c 0,-0.7382813 0.574219,-1.078125 1.03125,-1.078125 0.492187,0 0.550781,0.3867187 0.550781,0.7382812 v 1.59375003 c 0,0.3046875 -0.07031,0.3046875 -0.515625,0.3046875 v 0.24609375 c 0.01172,0 0.503906,-0.0234375 0.796875,-0.0234375 0.257813,0 0.738281,0.01171875 0.796875,0.0234375 v -0.24609375 c -0.457031,0 -0.527344,0 -0.527344,-0.3046875 z m 1.980469,-2.7304688 -1.042969,0.082031 v 0.2460937 c 0.480469,0 0.527344,0.058594 0.527344,0.4101563 v 4.10156248 h 0.234375 l 0.246094,-0.421875 c 0.257812,0.33984375 0.644531,0.4921875 1.019531,0.4921875 0.914063,0 1.699219,-0.69140625 1.699219,-1.58203128 0,-0.84375 -0.714844,-1.5585937 -1.628906,-1.5585937 -0.410157,0 -0.796875,0.1640625 -1.054688,0.4101562 z m 0.03516,2.5078125 c 0.1875,-0.328125 0.574219,-0.5507812 0.984375,-0.5507812 0.398438,0 0.667969,0.2226562 0.808594,0.4335937 0.140625,0.1992188 0.222656,0.4804688 0.222656,0.9375 0,0.1640625 0,0.67968753 -0.28125,1.00781253 -0.28125,0.31640625 -0.621093,0.375 -0.820312,0.375 -0.5625,0 -0.84375,-0.43359375 -0.914063,-0.5859375 z m 6.890625,0.84375 c 0,-0.8671875 -0.75,-1.6171875 -1.710937,-1.6171875 -0.960938,0 -1.710938,0.75 -1.710938,1.6171875 0,0.86718753 0.773438,1.55859378 1.710938,1.55859378 0.9375,0 1.710937,-0.69140625 1.710937,-1.55859378 z m -1.710937,1.33593753 c -0.257813,0 -0.632813,-0.0820313 -0.867188,-0.421875 -0.1875,-0.29296875 -0.210937,-0.65625003 -0.210937,-0.97265623 0,-0.3046875 0.01172,-0.7148438 0.257812,-1.0078125 0.175782,-0.2109375 0.46875,-0.3632813 0.820313,-0.3632813 0.410156,0 0.703125,0.1992188 0.855469,0.4101563 0.199218,0.28125 0.222656,0.6210937 0.222656,0.9609375 0,0.328125 -0.02344,0.70312498 -0.222656,0.98437498 -0.1875,0.26953125 -0.515625,0.41015625 -0.855469,0.41015625 z m 5.578125,-1.95703123 c 0,-0.609375 -0.292969,-0.9609375 -1.042969,-0.9609375 -0.574219,0 -0.9375,0.3046875 -1.136719,0.6679687 v -0.6679687 l -1.03125,0.070312 v 0.2578125 c 0.46875,0 0.527344,0.046875 0.527344,0.3867187 v 1.80468753 c 0,0.3046875 -0.07031,0.3046875 -0.527344,0.3046875 v 0.24609375 c 0.01172,0 0.503907,-0.0234375 0.796875,-0.0234375 0.257813,0 0.738282,0.01171875 0.796875,0.0234375 v -0.24609375 c -0.445312,0 -0.515625,0 -0.515625,-0.3046875 V -1.8060156 c 0,-0.7382813 0.574219,-1.078125 1.03125,-1.078125 0.492188,0 0.550782,0.3867187 0.550782,0.7382812 v 1.59375003 c 0,0.3046875 -0.07031,0.3046875 -0.515625,0.3046875 v 0.24609375 c 0.01172,0 0.503906,-0.0234375 0.796875,-0.0234375 0.257812,0 0.738281,0.01171875 0.796875,0.0234375 v -0.24609375 c -0.457032,0 -0.527344,0 -0.527344,-0.3046875 z m 3.884766,0.515625 c 0.140625,0 0.1875,0 0.1875,-0.1523438 0,-0.609375 -0.339844,-1.359375 -1.371094,-1.359375 -0.914063,0 -1.617188,0.7265625 -1.617188,1.5820313 0,0.87890623 0.773438,1.59374998 1.699219,1.59374998 0.949219,0 1.289063,-0.75 1.289063,-0.90234375 0,-0.0351563 -0.01172,-0.10546875 -0.117188,-0.10546875 -0.08203,0 -0.105469,0.046875 -0.117187,0.1171875 -0.222657,0.5625 -0.75,0.66796875 -0.996094,0.66796875 -0.328125,0 -0.644531,-0.15234375 -0.855469,-0.41015625 -0.257812,-0.328125 -0.269531,-0.74999998 -0.269531,-1.03124998 z m -2.15625,-0.1757813 c 0.07031,-0.984375 0.703125,-1.1484375 0.972656,-1.1484375 0.855469,0 0.878906,0.9726563 0.890625,1.1484375 z m 12.413086,-2.2851562 c 0.08203,-0.2460938 0.257812,-0.4570313 0.714843,-0.4570313 v -0.2460937 c -0.07031,0 -0.445312,0.023437 -0.644531,0.023437 -0.292969,0 -0.597656,-0.011719 -0.890625,-0.023437 v 0.2460937 c 0.398438,0.011719 0.585938,0.1757813 0.585938,0.3515625 0,0.035156 0,0.046875 -0.03516,0.140625 l -1.148437,3.22265628 -1.21875,-3.42187498 c -0.03516,-0.082031 -0.03516,-0.09375 -0.03516,-0.09375 0,-0.1992188 0.398437,-0.1992188 0.585937,-0.1992188 v -0.2460937 c -0.351562,0.011719 -0.796875,0.023437 -1.042969,0.023437 -0.28125,0 -0.5625,-0.011719 -0.84375,-0.023437 v 0.2460937 c 0.363282,0 0.480469,0.011719 0.5625,0.1054688 0.04687,0.058594 0.140625,0.3164062 0.1875,0.46875 l -1.113281,3.14062498 -1.21875,-3.39843748 c -0.03516,-0.082031 -0.03516,-0.1054688 -0.03516,-0.1171875 0,-0.1992188 0.398437,-0.1992188 0.585937,-0.1992188 v -0.2460937 c -0.351562,0.011719 -0.796875,0.023437 -1.042968,0.023437 -0.292969,0 -0.5625,-0.011719 -0.855469,-0.023437 v 0.2460937 c 0.433594,0 0.5625,0 0.65625,0.2578125 l 1.511719,4.23046878 c 0.03516,0.1171875 0.07031,0.1640625 0.1875,0.1640625 0.117187,0 0.140625,-0.0703125 0.175781,-0.1640625 l 1.277344,-3.56249998 1.277343,3.56249998 c 0.03516,0.09375 0.05859,0.1640625 0.175782,0.1640625 0.128906,0 0.152343,-0.046875 0.199218,-0.1640625 z m 1.666992,2.4609375 c 0,-0.5859375 0.28125,-1.2890625 0.9375,-1.2890625 -0.05859,0.046875 -0.117188,0.140625 -0.117188,0.2578125 0,0.2226562 0.175781,0.3164062 0.316406,0.3164062 0.164063,0 0.316407,-0.1054687 0.316407,-0.3164062 0,-0.2460938 -0.222657,-0.4453125 -0.550782,-0.4453125 -0.351562,0 -0.726562,0.2109375 -0.9375,0.7382812 h -0.01172 v -0.7382812 l -0.996094,0.070312 v 0.2578125 c 0.46875,0 0.527344,0.046875 0.527344,0.3867187 v 1.80468753 c 0,0.3046875 -0.07031,0.3046875 -0.527344,0.3046875 v 0.24609375 c 0.03516,0 0.515625,-0.0234375 0.796875,-0.0234375 0.304687,0 0.609375,0.01171875 0.902344,0.0234375 V -0.24742187 H 46.12018 c -0.515625,0 -0.515625,-0.0820313 -0.515625,-0.31640625 z m 4.833984,-0.2695313 c 0,-0.375 0,-0.6445312 -0.316406,-0.9023437 -0.28125,-0.234375 -0.621094,-0.3398438 -1.03125,-0.3398438 -0.667969,0 -1.125,0.2460938 -1.125,0.6679688 0,0.2226562 0.152344,0.3398437 0.328125,0.3398437 0.1875,0 0.328125,-0.1289062 0.328125,-0.3164062 0,-0.1289063 -0.05859,-0.2695313 -0.246094,-0.328125 0.257813,-0.1757813 0.65625,-0.1757813 0.703125,-0.1757813 0.386719,0 0.808594,0.2578125 0.808594,0.84375 v 0.2226563 c -0.375,0.011719 -0.84375,0.035156 -1.347656,0.2226562 -0.632813,0.2226563 -0.820313,0.609375 -0.820313,0.92578128 0,0.59765625 0.726563,0.7734375 1.21875,0.7734375 0.550781,0 0.878906,-0.31640625 1.03125,-0.5859375 0.02344,0.28125 0.210938,0.55078125 0.539063,0.55078125 0.01172,0 0.691406,0 0.691406,-0.66796875 V -1.0091406 h -0.246094 v 0.37499998 c 0,0.0703125 0,0.3984375 -0.257812,0.3984375 -0.257813,0 -0.257813,-0.328125 -0.257813,-0.41015625 z m -0.550781,0.87890628 c 0,0.66796875 -0.585938,0.85546875 -0.890625,0.85546875 -0.363281,0 -0.691406,-0.234375 -0.691406,-0.57421875 0,-0.38671878 0.328125,-0.92578128 1.582031,-0.97265628 z M 53.23932,1.1002344 c -0.445312,0 -0.515625,0 -0.515625,-0.30468752 v -1.13671875 c 0.03516,0.0351563 0.363282,0.41015625 0.949219,0.41015625 0.914063,0 1.699219,-0.69140625 1.699219,-1.58203128 0,-0.8554687 -0.703125,-1.5585937 -1.59375,-1.5585937 -0.398438,0 -0.796875,0.140625 -1.089844,0.421875 v -0.421875 l -1.042969,0.070312 v 0.2578125 c 0.492188,0 0.527344,0.035156 0.527344,0.328125 v 3.21093748 c 0,0.30468752 -0.07031,0.30468752 -0.527344,0.30468752 v 0.2460937 c 0.01172,0 0.503907,-0.023437 0.796875,-0.023437 0.257813,0 0.738282,0.023437 0.796875,0.023437 z m -0.515625,-3.421875 c 0.210938,-0.3515625 0.609375,-0.5273438 0.984375,-0.5273438 0.585938,0 1.03125,0.609375 1.03125,1.3359375 0,0.79687503 -0.515625,1.38281253 -1.113281,1.38281253 -0.609375,0 -0.878906,-0.5390625 -0.902344,-0.57421875 z m 4.916016,3.421875 c -0.445313,0 -0.515625,0 -0.515625,-0.30468752 v -1.13671875 c 0.03516,0.0351563 0.363281,0.41015625 0.949219,0.41015625 0.914062,0 1.699218,-0.69140625 1.699218,-1.58203128 0,-0.8554687 -0.703125,-1.5585937 -1.59375,-1.5585937 -0.398437,0 -0.796875,0.140625 -1.089843,0.421875 v -0.421875 l -1.042969,0.070312 v 0.2578125 c 0.492187,0 0.527344,0.035156 0.527344,0.328125 v 3.21093748 c 0,0.30468752 -0.07031,0.30468752 -0.527344,0.30468752 v 0.2460937 c 0.01172,0 0.503906,-0.023437 0.796875,-0.023437 0.257812,0 0.738281,0.023437 0.796875,0.023437 z m -0.515625,-3.421875 c 0.210937,-0.3515625 0.609375,-0.5273438 0.984375,-0.5273438 0.585937,0 1.03125,0.609375 1.03125,1.3359375 0,0.79687503 -0.515625,1.38281253 -1.113281,1.38281253 -0.609375,0 -0.878907,-0.5390625 -0.902344,-0.57421875 z m 6.260742,0.7265625 c 0.140625,0 0.1875,0 0.1875,-0.1523438 0,-0.609375 -0.339844,-1.359375 -1.371094,-1.359375 -0.914062,0 -1.617187,0.7265625 -1.617187,1.5820313 0,0.87890623 0.773437,1.59374998 1.699219,1.59374998 0.949218,0 1.289062,-0.75 1.289062,-0.90234375 0,-0.0351563 -0.01172,-0.10546875 -0.117187,-0.10546875 -0.08203,0 -0.105469,0.046875 -0.117188,0.1171875 -0.222656,0.5625 -0.75,0.66796875 -0.996094,0.66796875 -0.328125,0 -0.644531,-0.15234375 -0.855468,-0.41015625 -0.257813,-0.328125 -0.269532,-0.74999998 -0.269532,-1.03124998 z m -2.15625,-0.1757813 c 0.07031,-0.984375 0.703125,-1.1484375 0.972656,-1.1484375 0.855469,0 0.878907,0.9726563 0.890625,1.1484375 z m 4.010742,0.1757813 c 0,-0.5859375 0.28125,-1.2890625 0.9375,-1.2890625 -0.05859,0.046875 -0.117187,0.140625 -0.117187,0.2578125 0,0.2226562 0.175781,0.3164062 0.316406,0.3164062 0.164063,0 0.316406,-0.1054687 0.316406,-0.3164062 0,-0.2460938 -0.222656,-0.4453125 -0.550781,-0.4453125 -0.351562,0 -0.726562,0.2109375 -0.9375,0.7382812 h -0.01172 v -0.7382812 l -0.996093,0.070312 v 0.2578125 c 0.46875,0 0.527343,0.046875 0.527343,0.3867187 v 1.80468753 c 0,0.3046875 -0.07031,0.3046875 -0.527343,0.3046875 v 0.24609375 c 0.03516,0 0.515625,-0.0234375 0.796875,-0.0234375 0.304687,0 0.609375,0.01171875 0.902343,0.0234375 v -0.24609375 h -0.140625 c -0.515625,0 -0.515625,-0.0820313 -0.515625,-0.31640625 z m 0,0"
       style="fill:#000000;fill-opacity:1;fill-rule:nonzero;stroke:none"
       aria-label="WishboneWrapper"
       transform="matrix(1.3333333,0,0,1.3333333,206.38533,284.35333)" />
    <path
       id="path34"
       d="m 7.1012813,-4.0560156 c 0.082031,-0.2460938 0.2578125,-0.4570313 0.7148437,-0.4570313 v -0.2460937 c -0.070312,0 -0.4453125,0.023437 -0.6445312,0.023437 -0.2929688,0 -0.5976563,-0.011719 -0.890625,-0.023437 v 0.2460937 c 0.3984375,0.011719 0.5859375,0.1757813 0.5859375,0.3515625 0,0.035156 0,0.046875 -0.035156,0.140625 l -1.1484375,3.22265628 -1.21875,-3.42187498 c -0.035156,-0.082031 -0.035156,-0.09375 -0.035156,-0.09375 0,-0.1992188 0.3984375,-0.1992188 0.5859375,-0.1992188 v -0.2460937 c -0.3515625,0.011719 -0.796875,0.023437 -1.0429688,0.023437 -0.28125,0 -0.5625,-0.011719 -0.84375,-0.023437 v 0.2460937 c 0.3632813,0 0.4804688,0.011719 0.5625,0.1054688 0.046875,0.058594 0.140625,0.3164062 0.1875,0.46875 l -1.1132812,3.14062498 -1.21875,-3.39843748 c -0.035156,-0.082031 -0.035156,-0.1054688 -0.035156,-0.1171875 0,-0.1992188 0.3984375,-0.1992188 0.5859375,-0.1992188 v -0.2460937 c -0.3515625,0.011719 -0.796875,0.023437 -1.0429687,0.023437 -0.2929688,0 -0.56250005,-0.011719 -0.8554688,-0.023437 v 0.2460937 c 0.43359375,0 0.5625,0 0.65625,0.2578125 l 1.5117188,4.23046878 c 0.035156,0.1171875 0.070312,0.1640625 0.1875,0.1640625 0.1171875,0 0.140625,-0.0703125 0.1757812,-0.1640625 l 1.277343,-3.56249998 1.2773437,3.56249998 c 0.035156,0.09375 0.058594,0.1640625 0.1757813,0.1640625 0.1289062,0 0.1523437,-0.046875 0.1992187,-0.1640625 z m 2.399414,-0.2460938 c 0,-0.1992187 -0.1757812,-0.3984375 -0.4101562,-0.3984375 -0.2109375,0 -0.3984375,0.1640625 -0.3984375,0.3984375 0,0.2460938 0.1992187,0.3984375 0.3984375,0.3984375 0.2226562,0 0.4101562,-0.1640625 0.4101562,-0.3984375 z m -1.0664062,1.3007813 v 0.2578125 c 0.4453125,0 0.5039062,0.035156 0.5039062,0.375 v 1.81640623 c 0,0.3046875 -0.070312,0.3046875 -0.5273437,0.3046875 v 0.24609375 c 0.023437,0 0.5039062,-0.0234375 0.7851562,-0.0234375 0.2460938,0 0.4921875,0 0.7382813,0.0234375 v -0.24609375 c -0.3984375,0 -0.46875,0 -0.46875,-0.29296875 V -3.0716406 Z m 4.4941409,0.070312 c 0,-0.1171875 0,-0.1757813 -0.105469,-0.1757813 -0.03516,0 -0.04687,0 -0.140625,0.082031 -0.01172,0 -0.08203,0.070312 -0.117188,0.1054687 -0.210937,-0.1523437 -0.480468,-0.1875 -0.738281,-0.1875 -0.996094,0 -1.230469,0.515625 -1.230469,0.8671875 0,0.2226563 0.09375,0.4101563 0.257813,0.5390625 0.269531,0.234375 0.539062,0.28125 0.960937,0.3515625 0.351563,0.070312 0.914063,0.1640625 0.914063,0.63281253 0,0.26953125 -0.1875,0.5859375 -0.855469,0.5859375 -0.667969,0 -0.914062,-0.43359375 -1.03125,-0.91406253 -0.02344,-0.082031 -0.03516,-0.1171875 -0.128906,-0.1171875 -0.117188,0 -0.117188,0.046875 -0.117188,0.18750003 v 0.85546875 c 0,0.12890625 0,0.1875 0.09375,0.1875 0.05859,0 0.199219,-0.15234375 0.339844,-0.3046875 0.304688,0.29296875 0.679688,0.3046875 0.84375,0.3046875 0.914063,0 1.242188,-0.4921875 1.242188,-0.984375 0,-0.26953128 -0.117188,-0.46874998 -0.292969,-0.64453128 -0.269531,-0.2460937 -0.585938,-0.2929687 -0.832031,-0.3398437 -0.5625,-0.09375 -1.007813,-0.1757813 -1.007813,-0.5507813 0,-0.2226562 0.1875,-0.4921875 0.84375,-0.4921875 0.808594,0 0.84375,0.5625 0.855469,0.7617188 0.01172,0.082031 0.09375,0.082031 0.117187,0.082031 0.128907,0 0.128907,-0.046875 0.128907,-0.1875 z m 4.095703,0.8203125 c 0,-0.609375 -0.292969,-0.9609375 -1.042969,-0.9609375 -0.621094,0 -0.960937,0.3632812 -1.113281,0.6328125 h -0.01172 v -2.4023438 l -1.042969,0.082031 v 0.2460937 c 0.46875,0 0.527344,0.046875 0.527344,0.3867188 v 3.57421873 c 0,0.3046875 -0.07031,0.3046875 -0.527344,0.3046875 v 0.24609375 c 0.01172,0 0.503907,-0.0234375 0.796875,-0.0234375 0.257813,0 0.738282,0.01171875 0.796875,0.0234375 v -0.24609375 c -0.445312,0 -0.515625,0 -0.515625,-0.3046875 V -1.8060156 c 0,-0.7382813 0.574219,-1.078125 1.03125,-1.078125 0.492188,0 0.550782,0.3867187 0.550782,0.7382812 v 1.59375003 c 0,0.3046875 -0.07031,0.3046875 -0.515625,0.3046875 v 0.24609375 c 0.01172,0 0.503906,-0.0234375 0.796875,-0.0234375 0.257812,0 0.738281,0.01171875 0.796875,0.0234375 v -0.24609375 c -0.457032,0 -0.527344,0 -0.527344,-0.3046875 z m 1.980469,-2.7304688 -1.042969,0.082031 v 0.2460937 c 0.480469,0 0.527344,0.058594 0.527344,0.4101563 v 4.10156248 h 0.234375 l 0.246093,-0.421875 c 0.257813,0.33984375 0.644532,0.4921875 1.019532,0.4921875 0.914062,0 1.699218,-0.69140625 1.699218,-1.58203128 0,-0.84375 -0.714843,-1.5585937 -1.628906,-1.5585937 -0.410156,0 -0.796875,0.1640625 -1.054687,0.4101562 z m 0.03516,2.5078125 c 0.1875,-0.328125 0.574219,-0.5507812 0.984375,-0.5507812 0.398437,0 0.667969,0.2226562 0.808594,0.4335937 0.140625,0.1992188 0.222656,0.4804688 0.222656,0.9375 0,0.1640625 0,0.67968753 -0.28125,1.00781253 -0.28125,0.31640625 -0.621094,0.375 -0.820313,0.375 -0.5625,0 -0.84375,-0.43359375 -0.914062,-0.5859375 z m 6.890625,0.84375 c 0,-0.8671875 -0.75,-1.6171875 -1.710938,-1.6171875 -0.960937,0 -1.710937,0.75 -1.710937,1.6171875 0,0.86718753 0.773437,1.55859378 1.710937,1.55859378 0.9375,0 1.710938,-0.69140625 1.710938,-1.55859378 z m -1.710938,1.33593753 c -0.257812,0 -0.632812,-0.0820313 -0.867187,-0.421875 -0.1875,-0.29296875 -0.210938,-0.65625003 -0.210938,-0.97265623 0,-0.3046875 0.01172,-0.7148438 0.257813,-1.0078125 0.175781,-0.2109375 0.46875,-0.3632813 0.820312,-0.3632813 0.410157,0 0.703125,0.1992188 0.855469,0.4101563 0.199219,0.28125 0.222656,0.6210937 0.222656,0.9609375 0,0.328125 -0.02344,0.70312498 -0.222656,0.98437498 -0.1875,0.26953125 -0.515625,0.41015625 -0.855469,0.41015625 z m 5.575196,-1.95703123 c 0,-0.609375 -0.292969,-0.9609375 -1.042969,-0.9609375 -0.574219,0 -0.9375,0.3046875 -1.136719,0.6679687 v -0.6679687 l -1.03125,0.070312 v 0.2578125 c 0.46875,0 0.527344,0.046875 0.527344,0.3867187 v 1.80468753 c 0,0.3046875 -0.07031,0.3046875 -0.527344,0.3046875 v 0.24609375 c 0.01172,0 0.503906,-0.0234375 0.796875,-0.0234375 0.257813,0 0.738281,0.01171875 0.796875,0.0234375 v -0.24609375 c -0.445312,0 -0.515625,0 -0.515625,-0.3046875 V -1.8060156 c 0,-0.7382813 0.574219,-1.078125 1.03125,-1.078125 0.492188,0 0.550781,0.3867187 0.550781,0.7382812 v 1.59375003 c 0,0.3046875 -0.07031,0.3046875 -0.515625,0.3046875 v 0.24609375 c 0.01172,0 0.503907,-0.0234375 0.796875,-0.0234375 0.257813,0 0.738282,0.01171875 0.796875,0.0234375 v -0.24609375 c -0.457031,0 -0.527343,0 -0.527343,-0.3046875 z m 3.884765,0.515625 c 0.140625,0 0.1875,0 0.1875,-0.1523438 0,-0.609375 -0.339843,-1.359375 -1.371093,-1.359375 -0.914063,0 -1.617188,0.7265625 -1.617188,1.5820313 0,0.87890623 0.773438,1.59374998 1.699219,1.59374998 0.949219,0 1.289062,-0.75 1.289062,-0.90234375 0,-0.0351563 -0.01172,-0.10546875 -0.117187,-0.10546875 -0.08203,0 -0.105469,0.046875 -0.117188,0.1171875 -0.222656,0.5625 -0.75,0.66796875 -0.996093,0.66796875 -0.328125,0 -0.644532,-0.15234375 -0.855469,-0.41015625 -0.257813,-0.328125 -0.269531,-0.74999998 -0.269531,-1.03124998 z m -2.15625,-0.1757813 c 0.07031,-0.984375 0.703125,-1.1484375 0.972657,-1.1484375 0.855468,0 0.878906,0.9726563 0.890625,1.1484375 z m 12.416016,-2.2851562 c 0.08203,-0.2460938 0.257812,-0.4570313 0.714844,-0.4570313 v -0.2460937 c -0.07031,0 -0.445313,0.023437 -0.644532,0.023437 -0.292968,0 -0.597656,-0.011719 -0.890625,-0.023437 v 0.2460937 c 0.398438,0.011719 0.585938,0.1757813 0.585938,0.3515625 0,0.035156 0,0.046875 -0.03516,0.140625 l -1.148438,3.22265628 -1.21875,-3.42187498 c -0.03516,-0.082031 -0.03516,-0.09375 -0.03516,-0.09375 0,-0.1992188 0.398437,-0.1992188 0.585937,-0.1992188 v -0.2460937 c -0.351562,0.011719 -0.796875,0.023437 -1.042968,0.023437 -0.28125,0 -0.5625,-0.011719 -0.84375,-0.023437 v 0.2460937 c 0.363281,0 0.480468,0.011719 0.5625,0.1054688 0.04687,0.058594 0.140625,0.3164062 0.1875,0.46875 L 39.60323,-0.79820362 38.38448,-4.1966411 c -0.03516,-0.082031 -0.03516,-0.1054688 -0.03516,-0.1171875 0,-0.1992188 0.398438,-0.1992188 0.585938,-0.1992188 v -0.2460937 c -0.351563,0.011719 -0.796875,0.023437 -1.042969,0.023437 -0.292969,0 -0.5625,-0.011719 -0.855469,-0.023437 v 0.2460937 c 0.433594,0 0.5625,0 0.65625,0.2578125 l 1.511719,4.23046878 c 0.03516,0.1171875 0.07031,0.1640625 0.1875,0.1640625 0.117187,0 0.140625,-0.0703125 0.175781,-0.1640625 l 1.277344,-3.56249998 1.277344,3.56249998 c 0.03516,0.09375 0.05859,0.1640625 0.175781,0.1640625 0.128906,0 0.152344,-0.046875 0.199219,-0.1640625 z m 1.664062,2.4609375 c 0,-0.5859375 0.28125,-1.2890625 0.9375,-1.2890625 -0.05859,0.046875 -0.117187,0.140625 -0.117187,0.2578125 0,0.2226562 0.175781,0.3164062 0.316406,0.3164062 0.164063,0 0.316406,-0.1054687 0.316406,-0.3164062 0,-0.2460938 -0.222656,-0.4453125 -0.550781,-0.4453125 -0.351562,0 -0.726562,0.2109375 -0.9375,0.7382812 h -0.01172 v -0.7382812 l -0.996093,0.070312 v 0.2578125 c 0.46875,0 0.527343,0.046875 0.527343,0.3867187 v 1.80468753 c 0,0.3046875 -0.07031,0.3046875 -0.527343,0.3046875 v 0.24609375 c 0.03516,0 0.515625,-0.0234375 0.796875,-0.0234375 0.304687,0 0.609375,0.01171875 0.902343,0.0234375 v -0.24609375 h -0.140625 c -0.515625,0 -0.515625,-0.0820313 -0.515625,-0.31640625 z m 4.836914,-0.2695313 c 0,-0.375 0,-0.6445312 -0.316406,-0.9023437 -0.28125,-0.234375 -0.621094,-0.3398438 -1.03125,-0.3398438 -0.667969,0 -1.125,0.2460938 -1.125,0.6679688 0,0.2226562 0.152344,0.3398437 0.328125,0.3398437 0.1875,0 0.328125,-0.1289062 0.328125,-0.3164062 0,-0.1289063 -0.05859,-0.2695313 -0.246094,-0.328125 0.257813,-0.1757813 0.65625,-0.1757813 0.703125,-0.1757813 0.386719,0 0.808594,0.2578125 0.808594,0.84375 v 0.2226563 c -0.375,0.011719 -0.84375,0.035156 -1.347656,0.2226562 -0.632813,0.2226563 -0.820313,0.609375 -0.820313,0.92578128 0,0.59765625 0.726563,0.7734375 1.21875,0.7734375 0.550782,0 0.878907,-0.31640625 1.03125,-0.5859375 0.02344,0.28125 0.210938,0.55078125 0.539063,0.55078125 0.01172,0 0.691406,0 0.691406,-0.66796875 V -1.0091406 h -0.246094 v 0.37499998 c 0,0.0703125 0,0.3984375 -0.257812,0.3984375 -0.257813,0 -0.257813,-0.328125 -0.257813,-0.41015625 z m -0.550781,0.87890628 c 0,0.66796875 -0.585937,0.85546875 -0.890625,0.85546875 -0.363281,0 -0.691406,-0.234375 -0.691406,-0.57421875 0,-0.38671878 0.328125,-0.92578128 1.582031,-0.97265628 z m 3.342774,2.08593752 c -0.445313,0 -0.515625,0 -0.515625,-0.30468752 v -1.13671875 c 0.03516,0.0351563 0.363281,0.41015625 0.949218,0.41015625 0.914063,0 1.699219,-0.69140625 1.699219,-1.58203128 0,-0.8554687 -0.703125,-1.5585937 -1.59375,-1.5585937 -0.398437,0 -0.796875,0.140625 -1.089844,0.421875 v -0.421875 l -1.042968,0.070312 v 0.2578125 c 0.492187,0 0.527343,0.035156 0.527343,0.328125 v 3.21093748 c 0,0.30468752 -0.07031,0.30468752 -0.527343,0.30468752 v 0.2460937 c 0.01172,0 0.503906,-0.023437 0.796875,-0.023437 0.257812,0 0.738281,0.023437 0.796875,0.023437 z m -0.515625,-3.421875 c 0.210937,-0.3515625 0.609375,-0.5273438 0.984375,-0.5273438 0.585937,0 1.03125,0.609375 1.03125,1.3359375 0,0.79687503 -0.515625,1.38281253 -1.113282,1.38281253 -0.609375,0 -0.878906,-0.5390625 -0.902343,-0.57421875 z m 4.916015,3.421875 c -0.445312,0 -0.515625,0 -0.515625,-0.30468752 v -1.13671875 c 0.03516,0.0351563 0.363282,0.41015625 0.949219,0.41015625 0.914063,0 1.699219,-0.69140625 1.699219,-1.58203128 0,-0.8554687 -0.703125,-1.5585937 -1.59375,-1.5585937 -0.398438,0 -0.796875,0.140625 -1.089844,0.421875 v -0.421875 l -1.042969,0.070312 v 0.2578125 c 0.492188,0 0.527344,0.035156 0.527344,0.328125 v 3.21093748 c 0,0.30468752 -0.07031,0.30468752 -0.527344,0.30468752 v 0.2460937 c 0.01172,0 0.503907,-0.023437 0.796875,-0.023437 0.257813,0 0.738282,0.023437 0.796875,0.023437 z m -0.515625,-3.421875 c 0.210938,-0.3515625 0.609375,-0.5273438 0.984375,-0.5273438 0.585938,0 1.03125,0.609375 1.03125,1.3359375 0,0.79687503 -0.515625,1.38281253 -1.113281,1.38281253 -0.609375,0 -0.878906,-0.5390625 -0.902344,-0.57421875 z m 6.269532,0.7265625 c 0.140625,0 0.1875,0 0.1875,-0.1523438 0,-0.609375 -0.339844,-1.359375 -1.371094,-1.359375 -0.914063,0 -1.617188,0.7265625 -1.617188,1.5820313 0,0.87890623 0.773438,1.59374998 1.699219,1.59374998 0.949219,0 1.289063,-0.75 1.289063,-0.90234375 0,-0.0351563 -0.01172,-0.10546875 -0.117188,-0.10546875 -0.08203,0 -0.105469,0.046875 -0.117187,0.1171875 -0.222657,0.5625 -0.75,0.66796875 -0.996094,0.66796875 -0.328125,0 -0.644531,-0.15234375 -0.855469,-0.41015625 -0.257812,-0.328125 -0.269531,-0.74999998 -0.269531,-1.03124998 z m -2.15625,-0.1757813 c 0.07031,-0.984375 0.703125,-1.1484375 0.972656,-1.1484375 0.855469,0 0.878906,0.9726563 0.890625,1.1484375 z m 4.010742,0.1757813 c 0,-0.5859375 0.28125,-1.2890625 0.9375,-1.2890625 -0.05859,0.046875 -0.117188,0.140625 -0.117188,0.2578125 0,0.2226562 0.175781,0.3164062 0.316406,0.3164062 0.164063,0 0.316407,-0.1054687 0.316407,-0.3164062 0,-0.2460938 -0.222657,-0.4453125 -0.550782,-0.4453125 -0.351562,0 -0.726562,0.2109375 -0.9375,0.7382812 h -0.01172 v -0.7382812 l -0.996094,0.070312 v 0.2578125 c 0.46875,0 0.527344,0.046875 0.527344,0.3867187 v 1.80468753 c 0,0.3046875 -0.07031,0.3046875 -0.527344,0.3046875 v 0.24609375 c 0.03516,0 0.515625,-0.0234375 0.796875,-0.0234375 0.304687,0 0.609375,0.01171875 0.902344,0.0234375 v -0.24609375 h -0.140625 c -0.515625,0 -0.515625,-0.0820313 -0.515625,-0.31640625 z m 0,0"
       style="fill:#000000;fill-opacity:1;fill-rule:nonzero;stroke:none"
       aria-label="WishboneWrapper"
       transform="matrix(1.3333333,0,0,1.3333333,367.016,284.35333)" />
    <path
       id="path35"
       d="m 3.0706094,-1.5945859 c 0.140625,0 0.1875,0 0.1875,-0.1523438 0,-0.609375 -0.3398438,-1.359375 -1.3710938,-1.359375 -0.91406247,0 -1.61718747,0.7265625 -1.61718747,1.5820313 0,0.87890621 0.77343747,1.59374996 1.69921877,1.59374996 0.9492187,0 1.2890625,-0.75 1.2890625,-0.90234375 0,-0.0351563 -0.011719,-0.10546875 -0.1171875,-0.10546875 -0.082031,0 -0.1054688,0.046875 -0.1171875,0.1171875 -0.2226563,0.5625 -0.75,0.66796875 -0.9960938,0.66796875 -0.328125,0 -0.6445312,-0.15234375 -0.8554687,-0.41015625 C 0.91435938,-0.89146094 0.90264063,-1.3133359 0.90264063,-1.5945859 Z M 0.91435938,-1.7703672 c 0.0703125,-0.984375 0.70312502,-1.1484375 0.97265622,-1.1484375 0.8554688,0 0.8789063,0.9726563 0.890625,1.1484375 z M 7.1282266,-2.1102109 c 0,-0.609375 -0.2929688,-0.9609375 -1.0429688,-0.9609375 -0.5742187,0 -0.9375,0.3046875 -1.1367187,0.6679687 v -0.6679687 l -1.03125,0.070312 v 0.2578125 c 0.46875,0 0.5273437,0.046875 0.5273437,0.3867187 v 1.80468751 c 0,0.3046875 -0.070312,0.3046875 -0.5273437,0.3046875 v 0.2460937525 c 0.011719,0 0.5039062,-0.0234375025 0.796875,-0.0234375025 0.2578125,0 0.7382812,0.01171875 0.796875,0.0234375025 V -0.24692969 c -0.4453125,0 -0.515625,0 -0.515625,-0.3046875 V -1.8055234 c 0,-0.7382813 0.5742187,-1.078125 1.03125,-1.078125 0.4921875,0 0.5507812,0.3867187 0.5507812,0.7382812 v 1.59375001 c 0,0.3046875 -0.070312,0.3046875 -0.515625,0.3046875 v 0.2460937525 c 0.011719,0 0.5039063,-0.0234375025 0.796875,-0.0234375025 0.2578125,0 0.7382813,0.01171875 0.796875,0.0234375025 V -0.24692969 c -0.4570312,0 -0.5273437,0 -0.5273437,-0.3046875 z M 9.1321328,-2.7547422 H 10.210258 V -3.0008359 H 9.1321328 V -4.2898984 H 8.8860391 c 0,0.6328125 -0.2929688,1.3242187 -0.9609375,1.3359375 v 0.1992187 h 0.65625 v 1.88671876 c 0,0.7734375 0.5859375,0.9375 0.9726562,0.9375 0.4687502,0 0.7851562,-0.3984375 0.7851562,-0.94921875 V -1.2664609 h -0.234375 v 0.37499996 c 0,0.48046875 -0.2226562,0.73828125 -0.4921874,0.73828125 -0.4804688,0 -0.4804688,-0.5859375 -0.4804688,-0.71484375 z m 3.1845702,-1.546875 c 0,-0.1992187 -0.175781,-0.3984375 -0.410156,-0.3984375 -0.210938,0 -0.398438,0.1640625 -0.398438,0.3984375 0,0.2460938 0.199219,0.3984375 0.398438,0.3984375 0.222656,0 0.410156,-0.1640625 0.410156,-0.3984375 z m -1.066406,1.3007813 v 0.2578125 c 0.445312,0 0.503906,0.035156 0.503906,0.375 v 1.81640621 c 0,0.3046875 -0.07031,0.3046875 -0.527344,0.3046875 v 0.2460937525 c 0.02344,0 0.503907,-0.0234375025 0.785157,-0.0234375025 0.246093,0 0.492187,0 0.738281,0.0234375025 V -0.24692969 c -0.398438,0 -0.46875,0 -0.46875,-0.29296875 V -3.0711484 Z m 3.251953,0.2460937 h 1.078125 V -3.0008359 H 14.50225 v -1.2890625 h -0.246094 c 0,0.6328125 -0.292968,1.3242187 -0.960937,1.3359375 v 0.1992187 h 0.65625 v 1.88671876 c 0,0.7734375 0.585937,0.9375 0.972656,0.9375 0.46875,0 0.785156,-0.3984375 0.785156,-0.94921875 V -1.2664609 h -0.234375 v 0.37499996 c 0,0.48046875 -0.222656,0.73828125 -0.492187,0.73828125 -0.480469,0 -0.480469,-0.5859375 -0.480469,-0.71484375 z m 4.790039,0.4335938 c 0.199219,-0.421875 0.550781,-0.4335938 0.667969,-0.4335938 v -0.2460937 c -0.199219,0.011719 -0.328125,0.023437 -0.527344,0.023437 -0.1875,0 -0.445312,-0.011719 -0.632812,-0.023437 v 0.2460937 c 0.222656,0.011719 0.28125,0.1523438 0.28125,0.2695313 0,0.082031 -0.03516,0.140625 -0.05859,0.2109375 L 18.24932,-0.62192969 17.382133,-2.4617734 c -0.01172,-0.046875 -0.03516,-0.082031 -0.03516,-0.1289063 0,-0.1640625 0.234375,-0.1640625 0.351562,-0.1640625 v -0.2460937 c -0.105469,0 -0.609375,0.023437 -0.796875,0.023437 -0.210937,0 -0.480469,-0.011719 -0.691406,-0.023437 v 0.2460937 c 0.398437,0 0.46875,0.023437 0.574219,0.2460938 l 1.171875,2.5078124625 C 17.897758,0.13978906 17.827445,0.26869531 17.768852,0.40932031 17.604789,0.74916406 17.382133,1.2296328 16.913383,1.2296328 c -0.175781,0 -0.234375,-0.035156 -0.304688,-0.082031 0.01172,0 0.210938,-0.070312 0.210938,-0.30468754 0,-0.17578125 -0.128906,-0.3046875 -0.304688,-0.3046875 -0.175781,0 -0.304687,0.12890625 -0.304687,0.31640625 0,0.32812499 0.328125,0.56249999 0.703125,0.56249999 0.597656,0 0.9375,-0.62109374 1.03125,-0.82031249 z m 7.163086,0.2109375 c 0,-0.609375 -0.292969,-0.9609375 -1.042969,-0.9609375 -0.574218,0 -0.9375,0.3046875 -1.136718,0.6679687 v -0.6679687 l -1.03125,0.070312 v 0.2578125 c 0.46875,0 0.527343,0.046875 0.527343,0.3867187 v 1.80468751 c 0,0.3046875 -0.07031,0.3046875 -0.527343,0.3046875 v 0.2460937525 c 0.01172,0 0.503906,-0.0234375025 0.796875,-0.0234375025 0.257812,0 0.738281,0.01171875 0.796875,0.0234375025 V -0.24692969 c -0.445313,0 -0.515625,0 -0.515625,-0.3046875 V -1.8055234 c 0,-0.7382813 0.574218,-1.078125 1.03125,-1.078125 0.492187,0 0.550781,0.3867187 0.550781,0.7382812 v 1.59375001 c 0,0.3046875 -0.07031,0.3046875 -0.515625,0.3046875 v 0.2460937525 c 0.01172,0 0.503906,-0.0234375025 0.796875,-0.0234375025 0.257812,0 0.738281,0.01171875 0.796875,0.0234375025 V -0.24692969 c -0.457031,0 -0.527344,0 -0.527344,-0.3046875 z m 3.884766,0.515625 c 0.140625,0 0.1875,0 0.1875,-0.1523438 0,-0.609375 -0.339844,-1.359375 -1.371094,-1.359375 -0.914063,0 -1.617188,0.7265625 -1.617188,1.5820313 0,0.87890621 0.773438,1.59374996 1.699219,1.59374996 0.949219,0 1.289063,-0.75 1.289063,-0.90234375 0,-0.0351563 -0.01172,-0.10546875 -0.117188,-0.10546875 -0.08203,0 -0.105469,0.046875 -0.117187,0.1171875 -0.222657,0.5625 -0.75,0.66796875 -0.996094,0.66796875 -0.328125,0 -0.644531,-0.15234375 -0.855469,-0.41015625 -0.257812,-0.328125 -0.269531,-0.74999996 -0.269531,-1.03124996 z m -2.15625,-0.1757813 c 0.07031,-0.984375 0.703125,-1.1484375 0.972656,-1.1484375 0.855469,0 0.878906,0.9726563 0.890625,1.1484375 z m 6.319336,0.28125 c 0,-0.8671875 -0.75,-1.6171875 -1.710938,-1.6171875 -0.960937,0 -1.710937,0.75 -1.710937,1.6171875 0,0.86718751 0.773437,1.55859376 1.710937,1.55859376 0.9375,0 1.710938,-0.69140625 1.710938,-1.55859376 z m -1.710938,1.33593751 c -0.257812,0 -0.632812,-0.0820313 -0.867187,-0.421875 -0.1875,-0.29296875 -0.210938,-0.65625001 -0.210938,-0.97265621 0,-0.3046875 0.01172,-0.7148438 0.257813,-1.0078125 0.175781,-0.2109375 0.46875,-0.3632813 0.820312,-0.3632813 0.410156,0 0.703125,0.1992188 0.855469,0.4101563 0.199219,0.28125 0.222656,0.6210937 0.222656,0.9609375 0,0.328125 -0.02344,0.70312496 -0.222656,0.98437496 -0.1875,0.26953125 -0.515625,0.41015625 -0.855469,0.41015625 z m 3.375,-1.44140621 c 0,-0.5859375 0.28125,-1.2890625 0.9375,-1.2890625 -0.05859,0.046875 -0.117187,0.140625 -0.117187,0.2578125 0,0.2226562 0.175781,0.3164062 0.316406,0.3164062 0.164062,0 0.316406,-0.1054687 0.316406,-0.3164062 0,-0.2460938 -0.222656,-0.4453125 -0.550781,-0.4453125 -0.351563,0 -0.726563,0.2109375 -0.9375,0.7382812 h -0.01172 v -0.7382812 l -0.996094,0.070312 v 0.2578125 c 0.46875,0 0.527344,0.046875 0.527344,0.3867187 v 1.80468751 c 0,0.3046875 -0.07031,0.3046875 -0.527344,0.3046875 v 0.2460937525 c 0.03516,0 0.515625,-0.0234375025 0.796875,-0.0234375025 0.304688,0 0.609375,0.01171875 0.902344,0.0234375025 V -0.24692969 h -0.140625 c -0.515625,0 -0.515625,-0.0820312 -0.515625,-0.31640625 z m 5.033203,-0.7265625 c 0.199219,-0.421875 0.539063,-0.4335938 0.65625,-0.4335938 v -0.2460937 c -0.175781,0.011719 -0.351562,0.023437 -0.527344,0.023437 -0.1875,0 -0.445312,-0.011719 -0.632812,-0.023437 v 0.2460937 c 0.292969,0.011719 0.292969,0.2460938 0.292969,0.2695313 0,0.035156 -0.01172,0.1054687 -0.05859,0.1992187 l -0.785156,1.72265626 -0.867188,-1.89843746 c 0,-0.011719 -0.04687,-0.082031 -0.04687,-0.1289063 0,-0.1640625 0.234375,-0.1640625 0.363281,-0.1640625 v -0.2460937 c -0.02344,0 -0.515625,0.023437 -0.796875,0.023437 -0.210937,0 -0.480468,-0.011719 -0.691406,-0.023437 v 0.2460937 c 0.386719,0 0.46875,0.011719 0.574219,0.2460938 l 1.101562,2.42578121 c 0.03516,0.09375 0.08203,0.15234375 0.199219,0.15234375 0.128906,0 0.164063,-0.05859375 0.199219,-0.140625 z m 2.780274,-0.011719 c 0.550781,0 0.9375,0.375 0.9375,1.125 0,0.86718751 -0.503907,1.12500001 -0.902344,1.12500001 -0.28125,0 -0.890625,-0.08203125 -1.183594,-0.4921875 0.328125,-0.0117188 0.398438,-0.24609375 0.398438,-0.38671875 0,-0.22265626 -0.164063,-0.38671876 -0.386719,-0.38671876 -0.1875,0 -0.386719,0.1171875 -0.386719,0.41015626 0,0.65625 0.726563,1.078125 1.570313,1.078125 0.972656,0 1.640625,-0.64453125 1.640625,-1.34765626 0,-0.5390625 -0.445313,-1.0898437 -1.21875,-1.2421875 0.738281,-0.2695312 0.996093,-0.796875 0.996093,-1.21875 0,-0.5507812 -0.632812,-0.9609375 -1.40625,-0.9609375 -0.773437,0 -1.359375,0.375 -1.359375,0.9375 0,0.234375 0.152344,0.3632813 0.363282,0.3632813 0.210937,0 0.351562,-0.1640625 0.351562,-0.3515625 0,-0.1992188 -0.140625,-0.3515625 -0.351562,-0.3632813 0.234375,-0.3046875 0.714843,-0.3867187 0.972656,-0.3867187 0.316406,0 0.761719,0.1523437 0.761719,0.7617187 0,0.2929688 -0.105469,0.609375 -0.28125,0.8320313 -0.234375,0.2578125 -0.421875,0.28125 -0.773438,0.2929687 -0.175781,0.023437 -0.1875,0.023437 -0.222656,0.023437 -0.01172,0 -0.07031,0.011719 -0.07031,0.09375 0,0.09375 0.05859,0.09375 0.175782,0.09375 z m 5.589843,1.0664063 h -0.234375 c -0.02344,0.1523437 -0.08203,0.56249996 -0.175781,0.63281246 -0.05859,0.0351563 -0.597656,0.0351563 -0.691406,0.0351563 h -1.289063 c 0.738282,-0.64453126 0.984375,-0.84375006 1.394532,-1.17187496 0.515625,-0.4101562 0.996093,-0.8437501 0.996093,-1.5000001 0,-0.8437499 -0.738281,-1.3593749 -1.628906,-1.3593749 -0.867187,0 -1.453125,0.609375 -1.453125,1.2421874 0,0.3632814 0.304688,0.3984376 0.375,0.3984376 0.164063,0 0.375,-0.1171876 0.375,-0.3750001 0,-0.1289061 -0.05859,-0.3632811 -0.421875,-0.3632811 0.222656,-0.5039063 0.691406,-0.65625 1.019531,-0.65625 0.703125,0 1.066407,0.5507811 1.066407,1.1132811 0,0.609375 -0.433594,1.0898438 -0.65625,1.3359376 l -1.6875,1.66406246 c -0.07031,0.0585937 -0.07031,0.0703125 -0.07031,0.2695312525 h 2.882813 z m 0,0"
       style="fill:#000000;fill-opacity:1;fill-rule:nonzero;stroke:none"
       aria-label="entityneorv32"
       transform="matrix(1.3333333,0,0,1.3333333,179.53867,104.82533)" />
    <path
       id="path36"
       d="M 0,0 H 2.383"
       style="fill:none;stroke:#000000;stroke-width:0.398;stroke-linecap:butt;stroke-linejoin:miter;stroke-miterlimit:10;stroke-dasharray:none;stroke-opacity:1"
       transform="matrix(1.3333333,0,0,-1.3333333,246.86933,104.56)" />
    <path
       id="path37"
       d="M 1.9220313,-4.6063047 C 1.8517188,-4.7586484 1.8048438,-4.7586484 1.6525,-4.7586484 H 0.43375 v 0.2460937 h 0.1640625 c 0.5390625,0 0.5507813,0.070312 0.5507813,0.3164063 v 3.44531246 c 0,0.1875 0,0.50390625 -0.7148438,0.50390625 V -8.359375e-4 C 0.715,-0.02427344 0.99625,-0.02427344 1.2775,-0.02427344 c 0.2929688,0 0.5742188,0 0.8554688,0.0234375025 V -0.24692969 c -0.7148438,0 -0.7148438,-0.31640625 -0.7148438,-0.50390625 V -4.4305234 l 1.8164063,4.26562496 c 0.035156,0.08203125 0.070312,0.1640625025 0.1757812,0.1640625025 0.046875,0 0.1054688,-0.0234375025 0.1640625,-0.1406250025 L 5.4142188,-4.5008359 h 0.011719 v 3.93749996 c 0,0.234375 -0.011719,0.31640625 -0.5507812,0.31640625 H 4.7110938 V -8.359375e-4 C 5.0392188,-0.01255469 5.4376563,-0.02427344 5.7189063,-0.02427344 c 0.28125,0 0.6796875,0.01171875 1.0078125,0.0234375025 V -0.24692969 H 6.5626563 c -0.5390625,0 -0.5507813,-0.0703125 -0.5507813,-0.31640625 V -4.1961484 c 0,-0.234375 0.011719,-0.3164063 0.5507813,-0.3164063 H 6.7267188 V -4.7586484 H 5.5196875 c -0.140625,0 -0.2109375,0 -0.2578125,0.140625 L 3.5860938,-0.66880469 Z M 12.24332,-1.8289609 h -0.234375 c -0.1875,1.04296871 -0.339843,1.58203121 -1.628906,1.58203121 H 9.2784766 c -0.328125,0 -0.3398438,-0.0585937 -0.3398438,-0.28125 V -2.3328672 h 0.703125 c 0.7031252,0 0.8085942,0.2109375 0.8085942,0.8085938 h 0.234375 v -1.875 h -0.234375 c 0,0.5976562 -0.105469,0.8085937 -0.8085942,0.8085937 h -0.703125 v -1.6171875 c 0,-0.2226562 0.011719,-0.28125 0.3398438,-0.28125 h 1.0429684 c 1.148438,0 1.347657,0.3867188 1.464844,1.359375 h 0.246094 L 11.821445,-4.7352109 H 7.5558203 v 0.2460937 h 0.1757813 c 0.5273437,0 0.5507812,0.070312 0.5507812,0.3164063 v 3.60937496 c 0,0.234375 -0.023437,0.31640625 -0.5507812,0.31640625 H 7.5558203 v 0.2460937525 h 4.3710937 z m 2.200196,-2.7773438 c -0.07031,-0.1523437 -0.117188,-0.1523437 -0.269532,-0.1523437 h -1.21875 v 0.2460937 h 0.164063 c 0.539062,0 0.550781,0.070312 0.550781,0.3164063 v 3.44531246 c 0,0.1875 0,0.50390625 -0.714844,0.50390625 v 0.2460937525 c 0.28125,-0.0234375025 0.5625,-0.0234375025 0.84375,-0.0234375025 0.292969,0 0.574219,0 0.855469,0.0234375025 V -0.24692969 c -0.714844,0 -0.714844,-0.31640625 -0.714844,-0.50390625 V -4.4305234 l 1.816407,4.26562496 c 0.03516,0.08203125 0.07031,0.1640625025 0.175781,0.1640625025 0.04687,0 0.105469,-0.0234375025 0.164062,-0.1406250025 l 1.839844,-4.35937496 h 0.01172 v 3.93749996 c 0,0.234375 -0.01172,0.31640625 -0.550781,0.31640625 H 17.232578 V -8.359375e-4 C 17.560703,-0.01255469 17.959141,-0.02427344 18.240391,-0.02427344 c 0.28125,0 0.679687,0.01171875 1.007812,0.0234375025 V -0.24692969 h -0.164062 c -0.539063,0 -0.550782,-0.0703125 -0.550782,-0.31640625 V -4.1961484 c 0,-0.234375 0.01172,-0.3164063 0.550782,-0.3164063 h 0.164062 v -0.2460937 h -1.207031 c -0.140625,0 -0.210938,0 -0.257813,0.140625 l -1.675781,3.94921871 z m 0,0"
       style="fill:#000000;fill-opacity:1;fill-rule:nonzero;stroke:none"
       aria-label="MEM"
       transform="matrix(1.3333333,0,0,1.3333333,250.04667,104.82533)" />
    <path
       id="path38"
       d="M 0,0 H 2.383"
       style="fill:none;stroke:#000000;stroke-width:0.398;stroke-linecap:butt;stroke-linejoin:miter;stroke-miterlimit:10;stroke-dasharray:none;stroke-opacity:1"
       transform="matrix(1.3333333,0,0,-1.3333333,276.93467,104.56)" />
    <path
       id="path39"
       d="m 4.8876797,-2.3328672 c 0.1289062,-0.3398437 0.3632812,-0.4101562 0.5742187,-0.421875 v -0.2460937 c -0.1875,0.011719 -0.2929687,0.023437 -0.4921875,0.023437 -0.2109375,0 -0.4804687,-0.011719 -0.6914062,-0.023437 v 0.2460937 c 0.2460937,0.011719 0.3632812,0.140625 0.3632812,0.3046875 0,0.058594 0,0.070312 -0.035156,0.1640625 l -0.6796875,1.74609376 -0.75,-1.91015626 c -0.011719,-0.035156 -0.035156,-0.09375 -0.035156,-0.1289062 0,-0.1523438 0.1757813,-0.1757813 0.375,-0.1757813 v -0.2460937 c -0.2578125,0.011719 -0.5039062,0.023437 -0.75,0.023437 -0.2109375,0 -0.4101562,-0.011719 -0.6210937,-0.023437 v 0.2460937 c 0.1640625,0 0.3046875,0 0.3984375,0.058594 0.1054687,0.070312 0.1640625,0.2929687 0.1640625,0.3046875 0,0.011719 -0.011719,0.058594 -0.035156,0.082031 L 2.0283047,-0.64536719 1.3134609,-2.4500547 c -0.035156,-0.09375 -0.035156,-0.1054687 -0.035156,-0.1289062 0,-0.1757813 0.2460937,-0.1757813 0.375,-0.1757813 v -0.2460937 c -0.011719,0 -0.5039063,0.023437 -0.78515626,0.023437 -0.22265625,0 -0.4453125,-0.011719 -0.65625,-0.023437 v 0.2460937 c 0.26953125,0 0.421875,0 0.50390625,0.1992188 l 0.96093751,2.46093746 c 0.046875,0.10546875 0.070312,0.1640625 0.1875,0.1640625 0.1289062,0 0.1523437,-0.05859375 0.1875,-0.15234375 l 0.7851562,-1.99218751 0.7734375,1.98046876 c 0.046875,0.10546875 0.070312,0.1640625 0.1992188,0.1640625 0.1289062,0 0.140625,-0.046875 0.1875,-0.1640625 z m 2.2763672,-1.96875 c 0,-0.1992187 -0.1757813,-0.3984375 -0.4101563,-0.3984375 -0.2109375,0 -0.3984375,0.1640625 -0.3984375,0.3984375 0,0.2460938 0.1992188,0.3984375 0.3984375,0.3984375 0.2226563,0 0.4101563,-0.1640625 0.4101563,-0.3984375 z m -1.0664063,1.3007813 v 0.2578125 c 0.4453125,0 0.5039063,0.035156 0.5039063,0.375 v 1.81640621 c 0,0.3046875 -0.070312,0.3046875 -0.5273438,0.3046875 v 0.2460937525 c 0.023437,0 0.5039063,-0.0234375025 0.7851563,-0.0234375025 0.2460937,0 0.4921875,0 0.7382812,0.0234375025 V -0.24692969 c -0.3984375,0 -0.46875,0 -0.46875,-0.29296875 V -3.0711484 Z m 4.4941404,0.070312 c 0,-0.1171875 0,-0.1757813 -0.105468,-0.1757813 -0.03516,0 -0.04687,0 -0.140625,0.082031 -0.01172,0 -0.08203,0.070312 -0.117188,0.1054687 -0.210937,-0.1523437 -0.4804687,-0.1875 -0.7382812,-0.1875 -0.9960938,0 -1.2304688,0.515625 -1.2304688,0.8671875 0,0.2226563 0.09375,0.4101563 0.2578125,0.5390625 0.2695313,0.234375 0.5390625,0.28125 0.9609375,0.3515625 0.3515625,0.070312 0.914063,0.1640625 0.914063,0.63281251 0,0.26953125 -0.1875,0.5859375 -0.8554692,0.5859375 -0.6679688,0 -0.9140625,-0.43359375 -1.03125,-0.91406251 -0.023437,-0.082031 -0.035156,-0.1171875 -0.1289063,-0.1171875 -0.1171875,0 -0.1171875,0.046875 -0.1171875,0.18750001 v 0.85546875 c 0,0.12890625 0,0.1875 0.09375,0.1875 0.058594,0 0.1992188,-0.15234375 0.3398438,-0.3046875 0.3046875,0.29296875 0.6796875,0.3046875 0.84375,0.3046875 0.9140622,0 1.2421872,-0.4921875 1.2421872,-0.984375 0,-0.26953126 -0.117187,-0.46874996 -0.292968,-0.64453126 -0.269532,-0.2460937 -0.585938,-0.2929687 -0.8320317,-0.3398437 -0.5625,-0.09375 -1.0078125,-0.1757813 -1.0078125,-0.5507813 0,-0.2226562 0.1875,-0.4921875 0.84375,-0.4921875 0.8085942,0 0.8437502,0.5625 0.8554692,0.7617188 0.01172,0.082031 0.09375,0.082031 0.117187,0.082031 0.128906,0 0.128906,-0.046875 0.128906,-0.1875 z m 4.092774,0.8203125 c 0,-0.609375 -0.292969,-0.9609375 -1.042969,-0.9609375 -0.621094,0 -0.960938,0.3632812 -1.113281,0.6328125 h -0.01172 v -2.4023438 l -1.042969,0.082031 v 0.2460937 c 0.46875,0 0.527344,0.046875 0.527344,0.3867188 v 3.57421871 c 0,0.3046875 -0.07031,0.3046875 -0.527344,0.3046875 v 0.2460937525 c 0.01172,0 0.503906,-0.0234375025 0.796875,-0.0234375025 0.257813,0 0.738281,0.01171875 0.796875,0.0234375025 V -0.24692969 c -0.445312,0 -0.515625,0 -0.515625,-0.3046875 V -1.8055234 c 0,-0.7382813 0.574219,-1.078125 1.03125,-1.078125 0.492188,0 0.550781,0.3867187 0.550781,0.7382812 v 1.59375001 c 0,0.3046875 -0.07031,0.3046875 -0.515625,0.3046875 v 0.2460937525 c 0.01172,0 0.503907,-0.0234375025 0.796875,-0.0234375025 0.257813,0 0.738282,0.01171875 0.796875,0.0234375025 V -0.24692969 c -0.457031,0 -0.527343,0 -0.527343,-0.3046875 z m 1.980468,-2.7304688 -1.042968,0.082031 v 0.2460937 c 0.480468,0 0.527343,0.058594 0.527343,0.4101563 v 4.1015624625 h 0.234375 L 16.629867,-0.42271094 c 0.257813,0.33984375 0.644531,0.4921875 1.019531,0.4921875 0.914063,0 1.699219,-0.69140625 1.699219,-1.58203126 0,-0.84375 -0.714844,-1.5585937 -1.628906,-1.5585937 -0.410156,0 -0.796875,0.1640625 -1.054688,0.4101562 z m 0.03516,2.5078125 c 0.1875,-0.328125 0.574218,-0.5507812 0.984375,-0.5507812 0.398437,0 0.667968,0.2226562 0.808593,0.4335937 0.140625,0.1992188 0.222657,0.4804688 0.222657,0.9375 0,0.1640625 0,0.67968751 -0.28125,1.00781251 -0.28125,0.31640625 -0.621094,0.375 -0.820313,0.375 -0.5625,0 -0.84375,-0.43359375 -0.914062,-0.5859375 z m 6.890625,0.84375 c 0,-0.8671875 -0.75,-1.6171875 -1.710938,-1.6171875 -0.960937,0 -1.710937,0.75 -1.710937,1.6171875 0,0.86718751 0.773437,1.55859376 1.710937,1.55859376 0.9375,0 1.710938,-0.69140625 1.710938,-1.55859376 z m -1.710938,1.33593751 c -0.257812,0 -0.632812,-0.0820313 -0.867187,-0.421875 -0.1875,-0.29296875 -0.210938,-0.65625001 -0.210938,-0.97265621 0,-0.3046875 0.01172,-0.7148438 0.257813,-1.0078125 0.175781,-0.2109375 0.46875,-0.3632813 0.820312,-0.3632813 0.410156,0 0.703125,0.1992188 0.855469,0.4101563 0.199219,0.28125 0.222656,0.6210937 0.222656,0.9609375 0,0.328125 -0.02344,0.70312496 -0.222656,0.98437496 -0.1875,0.26953125 -0.515625,0.41015625 -0.855469,0.41015625 z m 5.578125,-1.95703121 c 0,-0.609375 -0.292969,-0.9609375 -1.042969,-0.9609375 -0.574218,0 -0.9375,0.3046875 -1.136718,0.6679687 v -0.6679687 l -1.03125,0.070312 v 0.2578125 c 0.46875,0 0.527343,0.046875 0.527343,0.3867187 v 1.80468751 c 0,0.3046875 -0.07031,0.3046875 -0.527343,0.3046875 v 0.2460937525 c 0.01172,0 0.503906,-0.0234375025 0.796875,-0.0234375025 0.257812,0 0.738281,0.01171875 0.796875,0.0234375025 V -0.24692969 c -0.445313,0 -0.515625,0 -0.515625,-0.3046875 V -1.8055234 c 0,-0.7382813 0.574218,-1.078125 1.03125,-1.078125 0.492187,0 0.550781,0.3867187 0.550781,0.7382812 v 1.59375001 c 0,0.3046875 -0.07031,0.3046875 -0.515625,0.3046875 v 0.2460937525 c 0.01172,0 0.503906,-0.0234375025 0.796875,-0.0234375025 0.257812,0 0.738281,0.01171875 0.796875,0.0234375025 V -0.24692969 c -0.457031,0 -0.527344,0 -0.527344,-0.3046875 z m 3.884766,0.515625 c 0.140625,0 0.1875,0 0.1875,-0.1523438 0,-0.609375 -0.339844,-1.359375 -1.371094,-1.359375 -0.914062,0 -1.617187,0.7265625 -1.617187,1.5820313 0,0.87890621 0.773437,1.59374996 1.699218,1.59374996 0.949219,0 1.289063,-0.75 1.289063,-0.90234375 0,-0.0351563 -0.01172,-0.10546875 -0.117188,-0.10546875 -0.08203,0 -0.105468,0.046875 -0.117187,0.1171875 -0.222656,0.5625 -0.75,0.66796875 -0.996094,0.66796875 -0.328125,0 -0.644531,-0.15234375 -0.855469,-0.41015625 -0.257812,-0.328125 -0.269531,-0.74999996 -0.269531,-1.03124996 z m -2.15625,-0.1757813 c 0.07031,-0.984375 0.703125,-1.1484375 0.972656,-1.1484375 0.855469,0 0.878906,0.9726563 0.890625,1.1484375 z m 0,0"
       style="fill:#000000;fill-opacity:1;fill-rule:nonzero;stroke:none"
       aria-label="wishbone"
       transform="matrix(1.3333333,0,0,1.3333333,280.112,104.82533)" />
  </g>
</svg>
